# MagicaVoxel @ Ephtracy

# group
o 

# material
mtllib BoxForCats.mtl
usemtl palette

# normals
vn -1 0 0
vn 1 0 0
vn 0 0 1
vn 0 0 -1
vn 0 -1 0
vn 0 1 0

# texcoords
vt 0.744141 0.5
vt 0.970703 0.5
vt 0.974609 0.5
vt 0.978516 0.5
vt 0.982422 0.5
vt 0.986328 0.5

# verts
v -2 1.2 1.1
v -2 1.2 -1.2
v -2 1.6 0.8
v -2 1.6 -0.9
v -2 2.9 0.8
v -2 2.9 -0.9
v -2 3.2 1.1
v -2 3.2 -1.2
v -1.9 1.9 0.2
v -1.9 1.9 -0.3
v -1.9 2 0.2
v -1.9 2 -0.3
v -1.8 1.9 0.3
v -1.8 1.9 0.2
v -1.8 1.9 -0.3
v -1.8 1.9 -0.4
v -1.8 2 0.3
v -1.8 2 0.2
v -1.8 2 -0.3
v -1.8 2 -0.4
v -1.7 1.2 1.3
v -1.7 1.2 1.1
v -1.7 1.2 -1.2
v -1.7 1.2 -1.4
v -1.7 1.5 1.3
v -1.7 1.5 1.1
v -1.7 1.5 -1.2
v -1.7 1.5 -1.4
v -1.6 1.1 1.3
v -1.6 1.1 1.1
v -1.6 1.1 -1.2
v -1.6 1.1 -1.4
v -1.6 1.2 1.3
v -1.6 1.2 1.1
v -1.6 1.2 -1.2
v -1.6 1.2 -1.4
v -1.6 1.3 0.1
v -1.6 1.3 -0.2
v -1.6 1.5 1.3
v -1.6 1.5 1.1
v -1.6 1.5 -1.2
v -1.6 1.5 -1.4
v -1.6 1.6 1.3
v -1.6 1.6 1.1
v -1.6 1.6 -1.2
v -1.6 1.6 -1.4
v -1.6 1.9 0.2
v -1.6 1.9 0.1
v -1.6 1.9 -0.2
v -1.6 1.9 -0.3
v -1.6 2 0.2
v -1.6 2 -0.3
v -1.4 1.2 1.3
v -1.4 1.2 1.2
v -1.4 1.2 -1.3
v -1.4 1.2 -1.4
v -1.4 1.3 1.3
v -1.4 1.3 1.2
v -1.4 1.3 -1.3
v -1.4 1.3 -1.4
v -1.4 1.4 1.3
v -1.4 1.4 1.2
v -1.4 1.4 -1.3
v -1.4 1.4 -1.4
v -1.4 1.5 1.3
v -1.4 1.5 1.2
v -1.4 1.5 -1.3
v -1.4 1.5 -1.4
v -1.4 1.9 0.2
v -1.4 1.9 0.1
v -1.4 1.9 -0.2
v -1.4 1.9 -0.3
v -1.4 2 0.2
v -1.4 2 0.1
v -1.4 2 -0.2
v -1.4 2 -0.3
v -1.3 1.3 1.3
v -1.3 1.3 1.2
v -1.3 1.3 -1.3
v -1.3 1.3 -1.4
v -1.3 1.4 1.3
v -1.3 1.4 1.2
v -1.3 1.4 -1.3
v -1.3 1.4 -1.4
v -1.3 1.9 0.1
v -1.3 1.9 1.19209e-07
v -1.3 1.9 -0.0999999
v -1.3 1.9 -0.2
v -1.3 2 0.1
v -1.3 2 1.19209e-07
v -1.3 2 -0.0999999
v -1.3 2 -0.2
v 1.2 1.2 1.3
v 1.2 1.2 1.1
v 1.2 1.2 -1.2
v 1.2 1.2 -1.4
v 1.2 1.5 1.3
v 1.2 1.5 1.1
v 1.2 1.5 -1.2
v 1.2 1.5 -1.4
v 1.3 1.1 1.3
v 1.3 1.1 1.1
v 1.3 1.1 -1.2
v 1.3 1.1 -1.4
v 1.3 1.2 1.3
v 1.3 1.2 1.1
v 1.3 1.2 -1.2
v 1.3 1.2 -1.4
v 1.3 1.3 0.4
v 1.3 1.3 0.3
v 1.3 1.3 -0.4
v 1.3 1.3 -0.5
v 1.3 1.5 1.3
v 1.3 1.5 1.1
v 1.3 1.5 -1.2
v 1.3 1.5 -1.4
v 1.3 1.6 1.3
v 1.3 1.6 1.1
v 1.3 1.6 0.3
v 1.3 1.6 -0.4
v 1.3 1.6 -1.2
v 1.3 1.6 -1.4
v 1.3 1.7 0.3
v 1.3 1.7 -0.4
v 1.3 1.9 0.3
v 1.3 1.9 -0.4
v 1.3 2 0.3
v 1.3 2 -0.4
v 1.3 2.2 0.3
v 1.3 2.2 -0.4
v 1.3 2.3 0.3
v 1.3 2.3 -0.4
v 1.3 2.5 0.3
v 1.3 2.5 -0.4
v 1.3 2.6 0.3
v 1.3 2.6 -0.4
v 1.3 2.8 0.3
v 1.3 2.8 -0.4
v 1.3 2.9 0.3
v 1.3 2.9 -0.4
v 1.3 3.2 0.4
v 1.3 3.2 0.3
v 1.3 3.2 -0.4
v 1.3 3.2 -0.5
v 1.4 3.1 0.7
v 1.4 3.1 0.4
v 1.4 3.1 0.3
v 1.4 3.1 -0.4
v 1.4 3.1 -0.5
v 1.4 3.1 -0.8
v 1.4 3.2 0.7
v 1.4 3.2 0.4
v 1.4 3.2 0.3
v 1.4 3.2 -0.4
v 1.4 3.2 -0.5
v 1.4 3.2 -0.8
v 1.5 1.2 1.3
v 1.5 1.2 1.2
v 1.5 1.2 -1.3
v 1.5 1.2 -1.4
v 1.5 1.3 1.3
v 1.5 1.3 1.2
v 1.5 1.3 -1.3
v 1.5 1.3 -1.4
v 1.5 1.4 1.3
v 1.5 1.4 1.2
v 1.5 1.4 -1.3
v 1.5 1.4 -1.4
v 1.5 1.5 1.3
v 1.5 1.5 1.2
v 1.5 1.5 -1.3
v 1.5 1.5 -1.4
v 1.6 1.3 1.3
v 1.6 1.3 1.2
v 1.6 1.3 -1.3
v 1.6 1.3 -1.4
v 1.6 1.4 1.3
v 1.6 1.4 1.2
v 1.6 1.4 -1.3
v 1.6 1.4 -1.4
v 1.8 1.3 0.9
v 1.8 1.3 -1
v 1.8 1.7 0.4
v 1.8 1.7 -0.5
v 1.8 1.8 0.5
v 1.8 1.8 0.4
v 1.8 1.8 -0.5
v 1.8 1.8 -0.6
v 1.8 1.9 0.6
v 1.8 1.9 0.5
v 1.8 1.9 0.2
v 1.8 1.9 -0.3
v 1.8 1.9 -0.6
v 1.8 1.9 -0.7
v 1.8 2 0.6
v 1.8 2 0.5
v 1.8 2 0.1
v 1.8 2 1.19209e-07
v 1.8 2 -0.0999999
v 1.8 2 -0.2
v 1.8 2 -0.6
v 1.8 2 -0.7
v 1.8 2.1 0.6
v 1.8 2.1 0.5
v 1.8 2.1 0.3
v 1.8 2.1 0.2
v 1.8 2.1 0.1
v 1.8 2.1 1.19209e-07
v 1.8 2.1 -0.0999999
v 1.8 2.1 -0.2
v 1.8 2.1 -0.3
v 1.8 2.1 -0.4
v 1.8 2.1 -0.6
v 1.8 2.1 -0.7
v 1.8 2.2 0.6
v 1.8 2.2 0.5
v 1.8 2.2 0.3
v 1.8 2.2 0.2
v 1.8 2.2 -0.3
v 1.8 2.2 -0.4
v 1.8 2.2 -0.6
v 1.8 2.2 -0.7
v 1.8 2.4 0.1
v 1.8 2.4 -0.2
v 1.8 2.5 0.2
v 1.8 2.5 0.1
v 1.8 2.5 -0.2
v 1.8 2.5 -0.3
v 1.8 2.6 0.3
v 1.8 2.6 0.2
v 1.8 2.6 0.1
v 1.8 2.6 -0.2
v 1.8 2.6 -0.3
v 1.8 2.6 -0.4
v 1.8 2.7 0.4
v 1.8 2.7 0.3
v 1.8 2.7 0.2
v 1.8 2.7 -0.3
v 1.8 2.7 -0.4
v 1.8 2.7 -0.5
v 1.8 2.8 0.5
v 1.8 2.8 0.3
v 1.8 2.8 -0.4
v 1.8 2.8 -0.6
v 1.8 3.1 0.9
v 1.8 3.1 -1
v -1.8 1.3 0.9
v -1.8 1.3 -1
v -1.8 1.6 0.8
v -1.8 1.6 -0.9
v -1.8 1.9 0.1
v -1.8 1.9 -0.2
v -1.8 2 0.1
v -1.8 2 -0.2
v -1.8 2.9 0.8
v -1.8 2.9 -0.9
v -1.8 3.1 0.9
v -1.8 3.1 -1
v -1.7 1.9 0.2
v -1.7 1.9 0.1
v -1.7 1.9 -0.2
v -1.7 1.9 -0.3
v -1.7 2 0.2
v -1.7 2 0.1
v -1.7 2 -0.2
v -1.7 2 -0.3
v -1.6 1.3 1.3
v -1.6 1.3 1.2
v -1.6 1.3 -1.3
v -1.6 1.3 -1.4
v -1.6 1.4 1.3
v -1.6 1.4 1.2
v -1.6 1.4 -1.3
v -1.6 1.4 -1.4
v -1.5 1.2 1.3
v -1.5 1.2 1.2
v -1.5 1.2 -1.3
v -1.5 1.2 -1.4
v -1.5 1.3 1.3
v -1.5 1.3 1.2
v -1.5 1.3 -1.3
v -1.5 1.3 -1.4
v -1.5 1.4 1.3
v -1.5 1.4 1.2
v -1.5 1.4 -1.3
v -1.5 1.4 -1.4
v -1.5 1.5 1.3
v -1.5 1.5 1.2
v -1.5 1.5 -1.3
v -1.5 1.5 -1.4
v -1.5 1.8 0.1
v -1.5 1.8 1.19209e-07
v -1.5 1.8 -0.0999999
v -1.5 1.8 -0.2
v -1.5 1.9 0.2
v -1.5 1.9 0.1
v -1.5 1.9 1.19209e-07
v -1.5 1.9 -0.0999999
v -1.5 1.9 -0.2
v -1.5 1.9 -0.3
v -1.5 2 0.2
v -1.5 2 1.19209e-07
v -1.5 2 -0.0999999
v -1.5 2 -0.3
v -1.4 1.3 0.1
v -1.4 1.3 -0.2
v -1.4 1.8 0.1
v -1.4 1.8 1.19209e-07
v -1.4 1.8 -0.0999999
v -1.4 1.8 -0.2
v -1.4 1.9 1.19209e-07
v -1.4 1.9 -0.0999999
v -1.4 3.1 0.7
v -1.4 3.1 -0.8
v -1.4 3.2 0.7
v -1.4 3.2 -0.8
v -1.3 1.1 1.3
v -1.3 1.1 1.1
v -1.3 1.1 -1.2
v -1.3 1.1 -1.4
v -1.3 1.2 1.3
v -1.3 1.2 1.1
v -1.3 1.2 -1.2
v -1.3 1.2 -1.4
v -1.3 1.5 1.3
v -1.3 1.5 1.1
v -1.3 1.5 -1.2
v -1.3 1.5 -1.4
v -1.3 1.6 1.3
v -1.3 1.6 1.1
v -1.3 1.6 -1.2
v -1.3 1.6 -1.4
v -1.3 1.9 0.3
v -1.3 1.9 0.2
v -1.3 1.9 -0.3
v -1.3 1.9 -0.4
v -1.3 2 0.3
v -1.3 2 0.2
v -1.3 2 -0.3
v -1.3 2 -0.4
v -1.2 1.2 1.3
v -1.2 1.2 1.1
v -1.2 1.2 -1.2
v -1.2 1.2 -1.4
v -1.2 1.5 1.3
v -1.2 1.5 1.1
v -1.2 1.5 -1.2
v -1.2 1.5 -1.4
v -1.2 1.9 0.2
v -1.2 1.9 -0.3
v -1.2 2 0.2
v -1.2 2 -0.3
v 1.3 1.3 1.3
v 1.3 1.3 1.2
v 1.3 1.3 -1.3
v 1.3 1.3 -1.4
v 1.3 1.4 1.3
v 1.3 1.4 1.2
v 1.3 1.4 -1.3
v 1.3 1.4 -1.4
v 1.4 1.2 1.3
v 1.4 1.2 1.2
v 1.4 1.2 -1.3
v 1.4 1.2 -1.4
v 1.4 1.3 1.3
v 1.4 1.3 1.2
v 1.4 1.3 0.4
v 1.4 1.3 0.3
v 1.4 1.3 -0.4
v 1.4 1.3 -0.5
v 1.4 1.3 -1.3
v 1.4 1.3 -1.4
v 1.4 1.4 1.3
v 1.4 1.4 1.2
v 1.4 1.4 -1.3
v 1.4 1.4 -1.4
v 1.4 1.5 1.3
v 1.4 1.5 1.2
v 1.4 1.5 -1.3
v 1.4 1.5 -1.4
v 1.4 1.6 0.3
v 1.4 1.6 -0.4
v 1.4 1.7 0.3
v 1.4 1.7 -0.4
v 1.4 1.9 0.3
v 1.4 1.9 -0.4
v 1.4 2 0.3
v 1.4 2 -0.4
v 1.4 2.2 0.3
v 1.4 2.2 -0.4
v 1.4 2.3 0.3
v 1.4 2.3 -0.4
v 1.4 2.5 0.3
v 1.4 2.5 -0.4
v 1.4 2.6 0.3
v 1.4 2.6 -0.4
v 1.4 2.8 0.3
v 1.4 2.8 -0.4
v 1.4 2.9 0.3
v 1.4 2.9 -0.4
v 1.4 3.1 0.4
v 1.4 3.1 0.3
v 1.4 3.1 -0.4
v 1.4 3.1 -0.5
v 1.6 1.1 1.3
v 1.6 1.1 1.1
v 1.6 1.1 -1.2
v 1.6 1.1 -1.4
v 1.6 1.2 1.3
v 1.6 1.2 1.1
v 1.6 1.2 -1.2
v 1.6 1.2 -1.4
v 1.6 1.5 1.3
v 1.6 1.5 1.1
v 1.6 1.5 -1.2
v 1.6 1.5 -1.4
v 1.6 1.6 1.3
v 1.6 1.6 1.1
v 1.6 1.6 -1.2
v 1.6 1.6 -1.4
v 1.7 1.2 1.3
v 1.7 1.2 1.1
v 1.7 1.2 -1.2
v 1.7 1.2 -1.4
v 1.7 1.5 1.3
v 1.7 1.5 1.1
v 1.7 1.5 -1.2
v 1.7 1.5 -1.4
v 2 1.2 1.1
v 2 1.2 -1.2
v 2 1.3 0.4
v 2 1.3 0.3
v 2 1.3 -0.4
v 2 1.3 -0.5
v 2 1.5 0.4
v 2 1.5 0.3
v 2 1.5 0.2
v 2 1.5 -0.3
v 2 1.5 -0.4
v 2 1.5 -0.5
v 2 1.6 0.2
v 2 1.6 -0.3
v 2 1.7 0.3
v 2 1.7 0.2
v 2 1.7 0.1
v 2 1.7 -0.2
v 2 1.7 -0.3
v 2 1.7 -0.4
v 2 1.9 0.2
v 2 1.9 0.1
v 2 1.9 1.19209e-07
v 2 1.9 -0.0999999
v 2 1.9 -0.2
v 2 1.9 -0.3
v 2 2.1 0.1
v 2 2.1 1.19209e-07
v 2 2.1 -0.0999999
v 2 2.1 -0.2
v 2 2.2 1.19209e-07
v 2 2.2 -0.0999999
v 2 2.4 0.8
v 2 2.4 0.7
v 2 2.4 0.4
v 2 2.4 0.2
v 2 2.4 -0.5
v 2 2.4 -0.6
v 2 2.5 0.5
v 2 2.5 0.4
v 2 2.5 0.3
v 2 2.8 0.6
v 2 2.8 0.5
v 2 2.8 0.4
v 2 2.9 -0.4
v 2 2.9 -0.5
v 2 2.9 -0.6
v 2 2.9 -0.7
v 2 3 0.7
v 2 3 0.6
v 2 3 0.5
v 2 3 -0.3
v 2 3 -0.4
v 2 3 -0.5
v 2 3 -0.6
v 2 3 -0.7
v 2 3 -0.8
v 2 3.1 0.8
v 2 3.1 0.6
v 2 3.1 0.3
v 2 3.1 0.2
v 2 3.1 -0.3
v 2 3.1 -0.4
v 2 3.1 -0.7
v 2 3.1 -0.8
v 2 3.2 1.1
v 2 3.2 -1.2
v -1.7 1.2 1.3
v -1.7 1.5 1.3
v -1.6 1.1 1.3
v -1.6 1.2 1.3
v -1.6 1.3 1.3
v -1.6 1.4 1.3
v -1.6 1.5 1.3
v -1.6 1.6 1.3
v -1.5 1.2 1.3
v -1.5 1.3 1.3
v -1.5 1.4 1.3
v -1.5 1.5 1.3
v -1.4 1.2 1.3
v -1.4 1.3 1.3
v -1.4 1.4 1.3
v -1.4 1.5 1.3
v -1.3 1.1 1.3
v -1.3 1.2 1.3
v -1.3 1.3 1.3
v -1.3 1.4 1.3
v -1.3 1.5 1.3
v -1.3 1.6 1.3
v -1.2 1.2 1.3
v -1.2 1.5 1.3
v 1.2 1.2 1.3
v 1.2 1.5 1.3
v 1.3 1.1 1.3
v 1.3 1.2 1.3
v 1.3 1.3 1.3
v 1.3 1.4 1.3
v 1.3 1.5 1.3
v 1.3 1.6 1.3
v 1.4 1.2 1.3
v 1.4 1.3 1.3
v 1.4 1.4 1.3
v 1.4 1.5 1.3
v 1.5 1.2 1.3
v 1.5 1.3 1.3
v 1.5 1.4 1.3
v 1.5 1.5 1.3
v 1.6 1.1 1.3
v 1.6 1.2 1.3
v 1.6 1.3 1.3
v 1.6 1.4 1.3
v 1.6 1.5 1.3
v 1.6 1.6 1.3
v 1.7 1.2 1.3
v 1.7 1.5 1.3
v -1.6 1.3 1.2
v -1.6 1.4 1.2
v -1.5 1.2 1.2
v -1.5 1.3 1.2
v -1.5 1.4 1.2
v -1.5 1.5 1.2
v -1.4 1.2 1.2
v -1.4 1.3 1.2
v -1.4 1.4 1.2
v -1.4 1.5 1.2
v -1.3 1.3 1.2
v -1.3 1.4 1.2
v 1.3 1.3 1.2
v 1.3 1.4 1.2
v 1.4 1.2 1.2
v 1.4 1.3 1.2
v 1.4 1.4 1.2
v 1.4 1.5 1.2
v 1.5 1.2 1.2
v 1.5 1.3 1.2
v 1.5 1.4 1.2
v 1.5 1.5 1.2
v 1.6 1.3 1.2
v 1.6 1.4 1.2
v -2 1.2 1.1
v -2 3.2 1.1
v -1.9 1.8 1.1
v -1.9 2 1.1
v -1.8 2 1.1
v -1.8 2.4 1.1
v -1.7 1.2 1.1
v -1.7 1.5 1.1
v -1.7 1.9 1.1
v -1.7 2.3 1.1
v -1.7 2.4 1.1
v -1.7 2.8 1.1
v -1.6 1.5 1.1
v -1.6 1.6 1.1
v -1.6 1.8 1.1
v -1.6 1.9 1.1
v -1.6 2 1.1
v -1.6 2.3 1.1
v -1.6 2.4 1.1
v -1.6 2.5 1.1
v -1.6 2.7 1.1
v -1.6 2.8 1.1
v -1.6 3 1.1
v -1.5 2.7 1.1
v -1.5 2.9 1.1
v -1.4 2 1.1
v -1.4 2.1 1.1
v -1.4 2.5 1.1
v -1.4 2.6 1.1
v -1.4 2.8 1.1
v -1.4 2.9 1.1
v -1.3 1.5 1.1
v -1.3 1.6 1.1
v -1.3 1.9 1.1
v -1.3 2 1.1
v -1.3 2.1 1.1
v -1.3 2.2 1.1
v -1.3 2.6 1.1
v -1.3 2.8 1.1
v -1.3 2.9 1.1
v -1.3 3 1.1
v -1.2 1.2 1.1
v -1.2 1.5 1.1
v -1.2 2 1.1
v -1.2 2.1 1.1
v -1.2 2.2 1.1
v -1.2 2.4 1.1
v -1.2 2.5 1.1
v -1.2 2.9 1.1
v -1.1 1.7 1.1
v -1.1 1.9 1.1
v -1.1 2.1 1.1
v -1.1 2.5 1.1
v -1 1.7 1.1
v -1 1.8 1.1
v -1 1.9 1.1
v -1 2 1.1
v -0.9 1.8 1.1
v -0.9 1.9 1.1
v -0.9 2 1.1
v -0.9 2.2 1.1
v -0.8 1.9 1.1
v -0.8 2.1 1.1
v -0.8 2.2 1.1
v -0.8 2.5 1.1
v -0.7 2.2 1.1
v -0.7 2.4 1.1
v -0.7 2.5 1.1
v -0.7 2.8 1.1
v -0.6 2.4 1.1
v -0.6 2.5 1.1
v -0.6 2.8 1.1
v -0.6 2.9 1.1
v -0.5 1.7 1.1
v -0.5 2.1 1.1
v -0.5 2.2 1.1
v -0.5 2.5 1.1
v -0.5 2.6 1.1
v -0.5 2.9 1.1
v -0.4 1.7 1.1
v -0.4 2.6 1.1
v -0.2 1.8 1.1
v -0.2 1.9 1.1
v -0.0999999 2.5 1.1
v -0.0999999 2.8 1.1
v 2.38419e-07 1.9 1.1
v 2.38419e-07 2 1.1
v 2.38419e-07 2.4 1.1
v 2.38419e-07 2.5 1.1
v 2.38419e-07 2.6 1.1
v 2.38419e-07 2.7 1.1
v 2.38419e-07 2.8 1.1
v 2.38419e-07 2.9 1.1
v 0.1 1.8 1.1
v 0.1 1.9 1.1
v 0.1 2 1.1
v 0.1 2.1 1.1
v 0.1 2.3 1.1
v 0.1 2.4 1.1
v 0.1 2.6 1.1
v 0.1 2.7 1.1
v 0.1 2.8 1.1
v 0.2 1.9 1.1
v 0.2 2 1.1
v 0.2 2.1 1.1
v 0.2 2.3 1.1
v 0.3 2 1.1
v 0.3 2.4 1.1
v 0.3 2.7 1.1
v 0.3 2.8 1.1
v 0.4 2.7 1.1
v 0.4 2.9 1.1
v 0.7 1.7 1.1
v 0.7 2.8 1.1
v 0.8 1.8 1.1
v 0.8 2.2 1.1
v 0.8 2.3 1.1
v 0.8 2.7 1.1
v 0.8 2.8 1.1
v 0.8 2.9 1.1
v 0.9 2.7 1.1
v 0.9 2.8 1.1
v 1.2 1.2 1.1
v 1.2 1.5 1.1
v 1.3 1.5 1.1
v 1.3 1.6 1.1
v 1.3 2.2 1.1
v 1.3 2.3 1.1
v 1.3 2.8 1.1
v 1.3 2.9 1.1
v 1.4 1.7 1.1
v 1.4 1.8 1.1
v 1.6 1.5 1.1
v 1.6 1.6 1.1
v 1.7 1.2 1.1
v 1.7 1.5 1.1
v 2 1.2 1.1
v 2 3.2 1.1
v 1.3 1.3 0.4
v 1.3 3.2 0.4
v 1.4 1.3 0.4
v 1.4 3.1 0.4
v 1.4 3.2 0.4
v -1.8 1.9 0.3
v -1.8 2 0.3
v -1.3 1.9 0.3
v -1.3 2 0.3
v -1.9 1.9 0.2
v -1.9 2 0.2
v -1.8 1.9 0.2
v -1.8 2 0.2
v -1.3 1.9 0.2
v -1.3 2 0.2
v -1.2 1.9 0.2
v -1.2 2 0.2
v -1.6 1.3 0.1
v -1.6 1.9 0.1
v -1.5 1.8 0.1
v -1.5 1.9 0.1
v -1.4 1.3 0.1
v -1.4 1.8 0.1
v -1.5 1.8 1.19209e-07
v -1.5 1.9 1.19209e-07
v -1.5 2 1.19209e-07
v -1.4 1.8 1.19209e-07
v -1.4 1.9 1.19209e-07
v -1.3 1.9 1.19209e-07
v -1.3 2 1.19209e-07
v -1.8 1.9 -0.2
v -1.8 2 -0.2
v -1.7 1.9 -0.2
v -1.7 2 -0.2
v -1.4 1.9 -0.2
v -1.4 2 -0.2
v -1.3 1.9 -0.2
v -1.3 2 -0.2
v -1.7 1.9 -0.3
v -1.7 2 -0.3
v -1.6 1.9 -0.3
v -1.6 2 -0.3
v -1.5 1.9 -0.3
v -1.5 2 -0.3
v -1.4 1.9 -0.3
v -1.4 2 -0.3
v 1.3 1.3 -0.4
v 1.3 1.6 -0.4
v 1.3 1.7 -0.4
v 1.3 1.9 -0.4
v 1.3 2 -0.4
v 1.3 2.2 -0.4
v 1.3 2.3 -0.4
v 1.3 2.5 -0.4
v 1.3 2.6 -0.4
v 1.3 2.8 -0.4
v 1.3 2.9 -0.4
v 1.3 3.2 -0.4
v 1.4 1.3 -0.4
v 1.4 1.6 -0.4
v 1.4 1.7 -0.4
v 1.4 1.9 -0.4
v 1.4 2 -0.4
v 1.4 2.2 -0.4
v 1.4 2.3 -0.4
v 1.4 2.5 -0.4
v 1.4 2.6 -0.4
v 1.4 2.8 -0.4
v 1.4 2.9 -0.4
v 1.4 3.1 -0.4
v 1.4 3.2 -0.4
v -1.4 3.1 -0.8
v -1.4 3.2 -0.8
v 1.4 3.1 -0.8
v 1.4 3.2 -0.8
v -2 1.6 -0.9
v -2 2.9 -0.9
v -1.8 1.6 -0.9
v -1.8 2.9 -0.9
v -1.8 1.3 -1
v -1.8 3.1 -1
v -1.6 2.4 -1
v -1.6 2.5 -1
v -1.6 2.6 -1
v -1.6 2.7 -1
v -1.6 2.8 -1
v -1.6 2.9 -1
v -1.5 2.6 -1
v -1.5 2.7 -1
v -1.4 2.6 -1
v -1.4 2.7 -1
v -1.3 2.4 -1
v -1.3 2.5 -1
v -1.3 2.8 -1
v -1.3 2.9 -1
v -1.2 2.8 -1
v -1.2 2.9 -1
v -1.1 2.6 -1
v -1.1 2.7 -1
v -1.1 2.8 -1
v -1.1 2.9 -1
v -1 2.8 -1
v -1 2.9 -1
v -0.7 2.8 -1
v -0.7 2.9 -1
v -0.6 2.8 -1
v -0.6 2.9 -1
v -0.5 2.8 -1
v -0.5 2.9 -1
v -0.2 2.4 -1
v -0.2 2.5 -1
v -0.2 2.6 -1
v -0.2 2.7 -1
v -0.2 2.8 -1
v -0.2 2.9 -1
v -0.0999999 2.4 -1
v -0.0999999 2.5 -1
v -0.0999999 2.6 -1
v -0.0999999 2.7 -1
v 2.38419e-07 2.4 -1
v 2.38419e-07 2.5 -1
v 2.38419e-07 2.6 -1
v 2.38419e-07 2.7 -1
v 0.1 2.8 -1
v 0.1 2.9 -1
v 0.2 2.8 -1
v 0.2 2.9 -1
v 0.3 2.4 -1
v 0.3 2.5 -1
v 0.3 2.6 -1
v 0.3 2.7 -1
v 0.3 2.8 -1
v 0.3 2.9 -1
v 0.4 2.4 -1
v 0.4 2.5 -1
v 0.4 2.8 -1
v 0.4 2.9 -1
v 0.5 2.4 -1
v 0.5 2.5 -1
v 0.7 2.8 -1
v 0.7 2.9 -1
v 0.8 2.8 -1
v 0.8 2.9 -1
v 0.9 2.8 -1
v 0.9 2.9 -1
v 1.8 1.3 -1
v 1.8 3.1 -1
v -1.6 1.1 -1.2
v -1.6 1.2 -1.2
v -1.3 1.1 -1.2
v -1.3 1.2 -1.2
v 1.3 1.1 -1.2
v 1.3 1.2 -1.2
v 1.6 1.1 -1.2
v 1.6 1.2 -1.2
v -1.6 1.1 1.1
v -1.6 1.2 1.1
v -1.3 1.1 1.1
v -1.3 1.2 1.1
v 1.3 1.1 1.1
v 1.3 1.2 1.1
v 1.6 1.1 1.1
v 1.6 1.2 1.1
v -1.8 1.3 0.9
v -1.8 3.1 0.9
v -0.5 2.8 0.9
v -0.5 2.9 0.9
v -0.2 2.8 0.9
v -0.2 2.9 0.9
v -0.0999999 2.8 0.9
v -0.0999999 2.9 0.9
v 0.1 2.6 0.9
v 0.1 2.7 0.9
v 0.2 2.6 0.9
v 0.2 2.7 0.9
v 0.2 2.8 0.9
v 0.2 2.9 0.9
v 0.5 2.2 0.9
v 0.5 2.3 0.9
v 0.6 2.2 0.9
v 0.6 2.3 0.9
v 0.7 2.2 0.9
v 0.7 2.3 0.9
v 0.7 2.4 0.9
v 0.7 2.5 0.9
v 0.8 2.4 0.9
v 0.8 2.5 0.9
v 0.9 2.4 0.9
v 0.9 2.5 0.9
v 0.9 2.8 0.9
v 0.9 2.9 0.9
v 1 2.2 0.9
v 1 2.3 0.9
v 1 2.4 0.9
v 1 2.5 0.9
v 1 2.8 0.9
v 1 2.9 0.9
v 1.1 2.2 0.9
v 1.1 2.3 0.9
v 1.1 2.4 0.9
v 1.1 2.5 0.9
v 1.1 2.8 0.9
v 1.1 2.9 0.9
v 1.2 2.8 0.9
v 1.2 2.9 0.9
v 1.3 2.8 0.9
v 1.3 2.9 0.9
v 1.4 2.2 0.9
v 1.4 2.3 0.9
v 1.4 2.4 0.9
v 1.4 2.5 0.9
v 1.4 2.8 0.9
v 1.4 2.9 0.9
v 1.5 2.2 0.9
v 1.5 2.3 0.9
v 1.5 2.4 0.9
v 1.5 2.5 0.9
v 1.5 2.6 0.9
v 1.5 2.7 0.9
v 1.5 2.8 0.9
v 1.5 2.9 0.9
v 1.6 2.2 0.9
v 1.6 2.3 0.9
v 1.6 2.4 0.9
v 1.6 2.5 0.9
v 1.6 2.6 0.9
v 1.6 2.7 0.9
v 1.6 2.8 0.9
v 1.6 2.9 0.9
v 1.8 1.3 0.9
v 1.8 3.1 0.9
v -2 1.6 0.8
v -2 2.9 0.8
v -1.8 1.6 0.8
v -1.8 2.9 0.8
v -1.4 3.1 0.7
v -1.4 3.2 0.7
v 1.4 3.1 0.7
v 1.4 3.2 0.7
v 1.3 1.3 0.3
v 1.3 1.6 0.3
v 1.3 1.7 0.3
v 1.3 1.9 0.3
v 1.3 2 0.3
v 1.3 2.2 0.3
v 1.3 2.3 0.3
v 1.3 2.5 0.3
v 1.3 2.6 0.3
v 1.3 2.8 0.3
v 1.3 2.9 0.3
v 1.3 3.2 0.3
v 1.4 1.3 0.3
v 1.4 1.6 0.3
v 1.4 1.7 0.3
v 1.4 1.9 0.3
v 1.4 2 0.3
v 1.4 2.2 0.3
v 1.4 2.3 0.3
v 1.4 2.5 0.3
v 1.4 2.6 0.3
v 1.4 2.8 0.3
v 1.4 2.9 0.3
v 1.4 3.1 0.3
v 1.4 3.2 0.3
v -1.7 1.9 0.2
v -1.7 2 0.2
v -1.6 1.9 0.2
v -1.6 2 0.2
v -1.5 1.9 0.2
v -1.5 2 0.2
v -1.4 1.9 0.2
v -1.4 2 0.2
v -1.8 1.9 0.1
v -1.8 2 0.1
v -1.7 1.9 0.1
v -1.7 2 0.1
v -1.4 1.9 0.1
v -1.4 2 0.1
v -1.3 1.9 0.1
v -1.3 2 0.1
v -1.5 1.8 -0.0999999
v -1.5 1.9 -0.0999999
v -1.5 2 -0.0999999
v -1.4 1.8 -0.0999999
v -1.4 1.9 -0.0999999
v -1.3 1.9 -0.0999999
v -1.3 2 -0.0999999
v -1.6 1.3 -0.2
v -1.6 1.9 -0.2
v -1.5 1.8 -0.2
v -1.5 1.9 -0.2
v -1.4 1.3 -0.2
v -1.4 1.8 -0.2
v -1.9 1.9 -0.3
v -1.9 2 -0.3
v -1.8 1.9 -0.3
v -1.8 2 -0.3
v -1.3 1.9 -0.3
v -1.3 2 -0.3
v -1.2 1.9 -0.3
v -1.2 2 -0.3
v -1.8 1.9 -0.4
v -1.8 2 -0.4
v -1.3 1.9 -0.4
v -1.3 2 -0.4
v 1.3 1.3 -0.5
v 1.3 3.2 -0.5
v 1.4 1.3 -0.5
v 1.4 3.1 -0.5
v 1.4 3.2 -0.5
v -2 1.2 -1.2
v -2 3.2 -1.2
v -1.7 1.2 -1.2
v -1.7 1.5 -1.2
v -1.6 1.5 -1.2
v -1.6 1.6 -1.2
v -1.5 2.8 -1.2
v -1.5 2.9 -1.2
v -1.4 2.7 -1.2
v -1.4 2.8 -1.2
v -1.3 1.5 -1.2
v -1.3 1.6 -1.2
v -1.3 2 -1.2
v -1.3 2.2 -1.2
v -1.3 2.6 -1.2
v -1.3 2.7 -1.2
v -1.3 2.8 -1.2
v -1.3 2.9 -1.2
v -1.2 1.2 -1.2
v -1.2 1.5 -1.2
v -1.2 2 -1.2
v -1.2 2.1 -1.2
v -1.2 2.2 -1.2
v -1.2 2.3 -1.2
v -1.2 2.5 -1.2
v -1.2 2.6 -1.2
v -1.2 2.7 -1.2
v -1.2 2.8 -1.2
v -1.1 2.1 -1.2
v -1.1 2.3 -1.2
v -1.1 2.5 -1.2
v -1.1 2.6 -1.2
v -1.1 2.7 -1.2
v -1 2.5 -1.2
v -1 2.6 -1.2
v -0.9 2.1 -1.2
v -0.9 2.3 -1.2
v -0.9 2.5 -1.2
v -0.9 2.7 -1.2
v -0.8 2 -1.2
v -0.8 2.1 -1.2
v -0.8 2.2 -1.2
v -0.8 2.3 -1.2
v -0.8 2.5 -1.2
v -0.8 2.6 -1.2
v -0.8 2.7 -1.2
v -0.8 2.8 -1.2
v -0.7 1.9 -1.2
v -0.7 2 -1.2
v -0.7 2.1 -1.2
v -0.7 2.2 -1.2
v -0.7 2.6 -1.2
v -0.7 2.7 -1.2
v -0.7 2.8 -1.2
v -0.7 2.9 -1.2
v -0.6 1.9 -1.2
v -0.6 2.1 -1.2
v -0.6 2.7 -1.2
v -0.6 2.9 -1.2
v -0.3 2.3 -1.2
v -0.3 2.7 -1.2
v -0.2 2 -1.2
v -0.2 2.3 -1.2
v -0.2 2.4 -1.2
v -0.2 2.6 -1.2
v -0.2 2.7 -1.2
v -0.2 2.8 -1.2
v -0.0999999 2.1 -1.2
v -0.0999999 2.4 -1.2
v -0.0999999 2.6 -1.2
v -0.0999999 2.7 -1.2
v -0.0999999 2.8 -1.2
v -0.0999999 2.9 -1.2
v 2.38419e-07 1.9 -1.2
v 2.38419e-07 2 -1.2
v 2.38419e-07 2.7 -1.2
v 2.38419e-07 2.8 -1.2
v 0.1 2 -1.2
v 0.1 2.1 -1.2
v 0.1 2.7 -1.2
v 0.1 2.8 -1.2
v 0.2 2.5 -1.2
v 0.2 2.7 -1.2
v 0.2 2.8 -1.2
v 0.2 2.9 -1.2
v 0.3 2 -1.2
v 0.3 2.1 -1.2
v 0.3 2.3 -1.2
v 0.3 2.5 -1.2
v 0.3 2.6 -1.2
v 0.3 2.8 -1.2
v 0.4 1.9 -1.2
v 0.4 2 -1.2
v 0.4 2.1 -1.2
v 0.4 2.3 -1.2
v 0.4 2.4 -1.2
v 0.4 2.6 -1.2
v 0.5 2 -1.2
v 0.5 2.4 -1.2
v 0.8 2.1 -1.2
v 0.8 2.4 -1.2
v 0.9 1.9 -1.2
v 0.9 2.1 -1.2
v 0.9 2.2 -1.2
v 0.9 2.3 -1.2
v 0.9 2.5 -1.2
v 0.9 3 -1.2
v 1 2 -1.2
v 1 2.2 -1.2
v 1 2.4 -1.2
v 1 2.5 -1.2
v 1 2.6 -1.2
v 1 2.9 -1.2
v 1.1 2.3 -1.2
v 1.1 2.4 -1.2
v 1.1 2.5 -1.2
v 1.1 2.6 -1.2
v 1.2 1.2 -1.2
v 1.2 1.5 -1.2
v 1.2 1.8 -1.2
v 1.2 1.9 -1.2
v 1.2 2 -1.2
v 1.3 1.5 -1.2
v 1.3 1.6 -1.2
v 1.3 2.4 -1.2
v 1.3 2.5 -1.2
v 1.4 2.5 -1.2
v 1.4 2.9 -1.2
v 1.5 1.7 -1.2
v 1.5 1.8 -1.2
v 1.5 1.9 -1.2
v 1.5 2.5 -1.2
v 1.5 2.6 -1.2
v 1.5 3 -1.2
v 1.6 1.5 -1.2
v 1.6 1.6 -1.2
v 1.6 1.7 -1.2
v 1.6 2.6 -1.2
v 1.7 1.2 -1.2
v 1.7 1.5 -1.2
v 2 1.2 -1.2
v 2 3.2 -1.2
v -1.6 1.3 -1.3
v -1.6 1.4 -1.3
v -1.5 1.2 -1.3
v -1.5 1.3 -1.3
v -1.5 1.4 -1.3
v -1.5 1.5 -1.3
v -1.4 1.2 -1.3
v -1.4 1.3 -1.3
v -1.4 1.4 -1.3
v -1.4 1.5 -1.3
v -1.3 1.3 -1.3
v -1.3 1.4 -1.3
v 1.3 1.3 -1.3
v 1.3 1.4 -1.3
v 1.4 1.2 -1.3
v 1.4 1.3 -1.3
v 1.4 1.4 -1.3
v 1.4 1.5 -1.3
v 1.5 1.2 -1.3
v 1.5 1.3 -1.3
v 1.5 1.4 -1.3
v 1.5 1.5 -1.3
v 1.6 1.3 -1.3
v 1.6 1.4 -1.3
v -1.7 1.2 -1.4
v -1.7 1.5 -1.4
v -1.6 1.1 -1.4
v -1.6 1.2 -1.4
v -1.6 1.3 -1.4
v -1.6 1.4 -1.4
v -1.6 1.5 -1.4
v -1.6 1.6 -1.4
v -1.5 1.2 -1.4
v -1.5 1.3 -1.4
v -1.5 1.4 -1.4
v -1.5 1.5 -1.4
v -1.4 1.2 -1.4
v -1.4 1.3 -1.4
v -1.4 1.4 -1.4
v -1.4 1.5 -1.4
v -1.3 1.1 -1.4
v -1.3 1.2 -1.4
v -1.3 1.3 -1.4
v -1.3 1.4 -1.4
v -1.3 1.5 -1.4
v -1.3 1.6 -1.4
v -1.2 1.2 -1.4
v -1.2 1.5 -1.4
v 1.2 1.2 -1.4
v 1.2 1.5 -1.4
v 1.3 1.1 -1.4
v 1.3 1.2 -1.4
v 1.3 1.3 -1.4
v 1.3 1.4 -1.4
v 1.3 1.5 -1.4
v 1.3 1.6 -1.4
v 1.4 1.2 -1.4
v 1.4 1.3 -1.4
v 1.4 1.4 -1.4
v 1.4 1.5 -1.4
v 1.5 1.2 -1.4
v 1.5 1.3 -1.4
v 1.5 1.4 -1.4
v 1.5 1.5 -1.4
v 1.6 1.1 -1.4
v 1.6 1.2 -1.4
v 1.6 1.3 -1.4
v 1.6 1.4 -1.4
v 1.6 1.5 -1.4
v 1.6 1.6 -1.4
v 1.7 1.2 -1.4
v 1.7 1.5 -1.4
v -1.6 1.1 1.3
v -1.3 1.1 1.3
v 1.3 1.1 1.3
v 1.6 1.1 1.3
v -1.6 1.1 1.1
v -1.3 1.1 1.1
v 1.3 1.1 1.1
v 1.6 1.1 1.1
v -1.6 1.1 -1.2
v -1.3 1.1 -1.2
v 1.3 1.1 -1.2
v 1.6 1.1 -1.2
v -1.6 1.1 -1.4
v -1.3 1.1 -1.4
v 1.3 1.1 -1.4
v 1.6 1.1 -1.4
v -1.7 1.2 1.3
v -1.6 1.2 1.3
v -1.3 1.2 1.3
v -1.2 1.2 1.3
v 1.2 1.2 1.3
v 1.3 1.2 1.3
v 1.6 1.2 1.3
v 1.7 1.2 1.3
v -2 1.2 1.1
v -1.7 1.2 1.1
v -1.6 1.2 1.1
v -1.3 1.2 1.1
v -1.2 1.2 1.1
v 1.2 1.2 1.1
v 1.3 1.2 1.1
v 1.6 1.2 1.1
v 1.7 1.2 1.1
v 2 1.2 1.1
v -2 1.2 -1.2
v -1.7 1.2 -1.2
v -1.6 1.2 -1.2
v -1.3 1.2 -1.2
v -1.2 1.2 -1.2
v 1.2 1.2 -1.2
v 1.3 1.2 -1.2
v 1.6 1.2 -1.2
v 1.7 1.2 -1.2
v 2 1.2 -1.2
v -1.7 1.2 -1.4
v -1.6 1.2 -1.4
v -1.3 1.2 -1.4
v -1.2 1.2 -1.4
v 1.2 1.2 -1.4
v 1.3 1.2 -1.4
v 1.6 1.2 -1.4
v 1.7 1.2 -1.4
v -1.6 1.4 1.3
v -1.5 1.4 1.3
v -1.4 1.4 1.3
v -1.3 1.4 1.3
v 1.3 1.4 1.3
v 1.4 1.4 1.3
v 1.5 1.4 1.3
v 1.6 1.4 1.3
v -1.6 1.4 1.2
v -1.5 1.4 1.2
v -1.4 1.4 1.2
v -1.3 1.4 1.2
v 1.3 1.4 1.2
v 1.4 1.4 1.2
v 1.5 1.4 1.2
v 1.6 1.4 1.2
v -1.6 1.4 -1.3
v -1.5 1.4 -1.3
v -1.4 1.4 -1.3
v -1.3 1.4 -1.3
v 1.3 1.4 -1.3
v 1.4 1.4 -1.3
v 1.5 1.4 -1.3
v 1.6 1.4 -1.3
v -1.6 1.4 -1.4
v -1.5 1.4 -1.4
v -1.4 1.4 -1.4
v -1.3 1.4 -1.4
v 1.3 1.4 -1.4
v 1.4 1.4 -1.4
v 1.5 1.4 -1.4
v 1.6 1.4 -1.4
v -1.5 1.5 1.3
v -1.4 1.5 1.3
v 1.4 1.5 1.3
v 1.5 1.5 1.3
v -1.5 1.5 1.2
v -1.4 1.5 1.2
v 1.4 1.5 1.2
v 1.5 1.5 1.2
v -1.5 1.5 -1.3
v -1.4 1.5 -1.3
v 1.4 1.5 -1.3
v 1.5 1.5 -1.3
v -1.5 1.5 -1.4
v -1.4 1.5 -1.4
v 1.4 1.5 -1.4
v 1.5 1.5 -1.4
v 1.3 1.6 0.3
v 1.4 1.6 0.3
v 1.3 1.6 -0.4
v 1.4 1.6 -0.4
v -1.8 1.9 0.3
v -1.3 1.9 0.3
v 1.3 1.9 0.3
v 1.4 1.9 0.3
v -1.9 1.9 0.2
v -1.8 1.9 0.2
v -1.7 1.9 0.2
v -1.6 1.9 0.2
v -1.5 1.9 0.2
v -1.4 1.9 0.2
v -1.3 1.9 0.2
v -1.2 1.9 0.2
v -1.8 1.9 0.1
v -1.7 1.9 0.1
v -1.6 1.9 0.1
v -1.5 1.9 0.1
v -1.4 1.9 0.1
v -1.3 1.9 0.1
v -1.4 1.9 1.19209e-07
v -1.3 1.9 1.19209e-07
v -1.4 1.9 -0.0999999
v -1.3 1.9 -0.0999999
v -1.8 1.9 -0.2
v -1.7 1.9 -0.2
v -1.6 1.9 -0.2
v -1.5 1.9 -0.2
v -1.4 1.9 -0.2
v -1.3 1.9 -0.2
v -1.9 1.9 -0.3
v -1.8 1.9 -0.3
v -1.7 1.9 -0.3
v -1.6 1.9 -0.3
v -1.5 1.9 -0.3
v -1.4 1.9 -0.3
v -1.3 1.9 -0.3
v -1.2 1.9 -0.3
v -1.8 1.9 -0.4
v -1.3 1.9 -0.4
v 1.3 1.9 -0.4
v 1.4 1.9 -0.4
v 1.3 2.2 0.3
v 1.4 2.2 0.3
v 1.3 2.2 -0.4
v 1.4 2.2 -0.4
v 1.3 2.5 0.3
v 1.4 2.5 0.3
v 1.3 2.5 -0.4
v 1.4 2.5 -0.4
v 1.3 2.8 0.3
v 1.4 2.8 0.3
v 1.3 2.8 -0.4
v 1.4 2.8 -0.4
v -2 2.9 0.8
v -1.8 2.9 0.8
v -2 2.9 -0.9
v -1.8 2.9 -0.9
v -1.8 3.1 0.9
v 1.8 3.1 0.9
v -1.4 3.1 0.7
v 1.4 3.1 0.7
v 1.4 3.1 0.4
v 1.4 3.1 0.3
v 1.4 3.1 -0.4
v 1.4 3.1 -0.5
v -1.4 3.1 -0.8
v 1.4 3.1 -0.8
v -1.8 3.1 -1
v 1.8 3.1 -1
v -1.5 1.2 1.3
v -1.4 1.2 1.3
v 1.4 1.2 1.3
v 1.5 1.2 1.3
v -1.5 1.2 1.2
v -1.4 1.2 1.2
v 1.4 1.2 1.2
v 1.5 1.2 1.2
v -1.5 1.2 -1.3
v -1.4 1.2 -1.3
v 1.4 1.2 -1.3
v 1.5 1.2 -1.3
v -1.5 1.2 -1.4
v -1.4 1.2 -1.4
v 1.4 1.2 -1.4
v 1.5 1.2 -1.4
v -1.6 1.3 1.3
v -1.5 1.3 1.3
v -1.4 1.3 1.3
v -1.3 1.3 1.3
v 1.3 1.3 1.3
v 1.4 1.3 1.3
v 1.5 1.3 1.3
v 1.6 1.3 1.3
v -1.6 1.3 1.2
v -1.5 1.3 1.2
v -1.4 1.3 1.2
v -1.3 1.3 1.2
v 1.3 1.3 1.2
v 1.4 1.3 1.2
v 1.5 1.3 1.2
v 1.6 1.3 1.2
v -1.8 1.3 0.9
v 1.8 1.3 0.9
v 1.3 1.3 0.4
v 1.4 1.3 0.4
v 1.3 1.3 0.3
v 1.4 1.3 0.3
v -1.6 1.3 0.1
v -1.4 1.3 0.1
v -1.6 1.3 -0.2
v -1.4 1.3 -0.2
v 1.3 1.3 -0.4
v 1.4 1.3 -0.4
v 1.3 1.3 -0.5
v 1.4 1.3 -0.5
v -1.8 1.3 -1
v 1.8 1.3 -1
v -1.6 1.3 -1.3
v -1.5 1.3 -1.3
v -1.4 1.3 -1.3
v -1.3 1.3 -1.3
v 1.3 1.3 -1.3
v 1.4 1.3 -1.3
v 1.5 1.3 -1.3
v 1.6 1.3 -1.3
v -1.6 1.3 -1.4
v -1.5 1.3 -1.4
v -1.4 1.3 -1.4
v -1.3 1.3 -1.4
v 1.3 1.3 -1.4
v 1.4 1.3 -1.4
v 1.5 1.3 -1.4
v 1.6 1.3 -1.4
v -1.7 1.5 1.3
v -1.6 1.5 1.3
v -1.3 1.5 1.3
v -1.2 1.5 1.3
v 1.2 1.5 1.3
v 1.3 1.5 1.3
v 1.6 1.5 1.3
v 1.7 1.5 1.3
v -1.7 1.5 1.1
v -1.6 1.5 1.1
v -1.3 1.5 1.1
v -1.2 1.5 1.1
v 1.2 1.5 1.1
v 1.3 1.5 1.1
v 1.6 1.5 1.1
v 1.7 1.5 1.1
v -1.7 1.5 -1.2
v -1.6 1.5 -1.2
v -1.3 1.5 -1.2
v -1.2 1.5 -1.2
v 1.2 1.5 -1.2
v 1.3 1.5 -1.2
v 1.6 1.5 -1.2
v 1.7 1.5 -1.2
v -1.7 1.5 -1.4
v -1.6 1.5 -1.4
v -1.3 1.5 -1.4
v -1.2 1.5 -1.4
v 1.2 1.5 -1.4
v 1.3 1.5 -1.4
v 1.6 1.5 -1.4
v 1.7 1.5 -1.4
v -1.6 1.6 1.3
v -1.3 1.6 1.3
v 1.3 1.6 1.3
v 1.6 1.6 1.3
v -1.6 1.6 1.1
v -1.3 1.6 1.1
v 1.3 1.6 1.1
v 1.6 1.6 1.1
v -2 1.6 0.8
v -1.8 1.6 0.8
v -2 1.6 -0.9
v -1.8 1.6 -0.9
v -1.6 1.6 -1.2
v -1.3 1.6 -1.2
v 1.3 1.6 -1.2
v 1.6 1.6 -1.2
v -1.6 1.6 -1.4
v -1.3 1.6 -1.4
v 1.3 1.6 -1.4
v 1.6 1.6 -1.4
v 1.3 1.7 0.3
v 1.4 1.7 0.3
v 1.3 1.7 -0.4
v 1.4 1.7 -0.4
v -1.5 1.8 0.1
v -1.4 1.8 0.1
v -1.5 1.8 1.19209e-07
v -1.4 1.8 1.19209e-07
v -1.5 1.8 -0.0999999
v -1.4 1.8 -0.0999999
v -1.5 1.8 -0.2
v -1.4 1.8 -0.2
v -1.8 2 0.3
v -1.3 2 0.3
v 1.3 2 0.3
v 1.4 2 0.3
v -1.9 2 0.2
v -1.8 2 0.2
v -1.7 2 0.2
v -1.6 2 0.2
v -1.5 2 0.2
v -1.4 2 0.2
v -1.3 2 0.2
v -1.2 2 0.2
v -1.8 2 0.1
v -1.7 2 0.1
v -1.4 2 0.1
v -1.3 2 0.1
v -1.5 2 1.19209e-07
v -1.3 2 1.19209e-07
v -1.5 2 -0.0999999
v -1.3 2 -0.0999999
v -1.8 2 -0.2
v -1.7 2 -0.2
v -1.4 2 -0.2
v -1.3 2 -0.2
v -1.9 2 -0.3
v -1.8 2 -0.3
v -1.7 2 -0.3
v -1.6 2 -0.3
v -1.5 2 -0.3
v -1.4 2 -0.3
v -1.3 2 -0.3
v -1.2 2 -0.3
v -1.8 2 -0.4
v -1.3 2 -0.4
v 1.3 2 -0.4
v 1.4 2 -0.4
v 1.3 2.3 0.3
v 1.4 2.3 0.3
v 1.3 2.3 -0.4
v 1.4 2.3 -0.4
v 1.3 2.6 0.3
v 1.4 2.6 0.3
v 1.3 2.6 -0.4
v 1.4 2.6 -0.4
v 1.3 2.9 0.3
v 1.4 2.9 0.3
v 1.3 2.9 -0.4
v 1.4 2.9 -0.4
v -2 3.2 1.1
v 2 3.2 1.1
v -1.4 3.2 0.7
v 1.4 3.2 0.7
v 1.3 3.2 0.4
v 1.4 3.2 0.4
v 1.3 3.2 0.3
v 1.4 3.2 0.3
v 1.3 3.2 -0.4
v 1.4 3.2 -0.4
v 1.3 3.2 -0.5
v 1.4 3.2 -0.5
v -1.4 3.2 -0.8
v 1.4 3.2 -0.8
v -2 3.2 -1.2
v 2 3.2 -1.2

# faces
f 3/2/1 2/2/1 1/2/1
f 4/2/1 2/2/1 3/2/1
f 5/2/1 3/2/1 1/2/1
f 6/2/1 2/2/1 4/2/1
f 7/2/1 5/2/1 1/2/1
f 7/2/1 6/2/1 5/2/1
f 8/2/1 2/2/1 6/2/1
f 8/2/1 6/2/1 7/2/1
f 11/4/1 10/4/1 9/4/1
f 12/4/1 10/4/1 11/4/1
f 17/4/1 14/4/1 13/4/1
f 18/4/1 14/4/1 17/4/1
f 19/4/1 16/4/1 15/4/1
f 20/4/1 16/4/1 19/4/1
f 25/4/1 22/4/1 21/4/1
f 26/4/1 22/4/1 25/4/1
f 27/4/1 24/4/1 23/4/1
f 28/4/1 24/4/1 27/4/1
f 33/4/1 30/4/1 29/4/1
f 34/4/1 30/4/1 33/4/1
f 35/4/1 32/4/1 31/4/1
f 36/4/1 32/4/1 35/4/1
f 43/4/1 40/4/1 39/4/1
f 44/4/1 40/4/1 43/4/1
f 45/4/1 42/4/1 41/4/1
f 46/4/1 42/4/1 45/4/1
f 48/4/1 38/4/1 37/4/1
f 49/4/1 38/4/1 48/4/1
f 51/5/1 48/5/1 47/5/1
f 51/5/1 50/5/1 49/5/1
f 51/5/1 49/5/1 48/5/1
f 52/5/1 50/5/1 51/5/1
f 57/4/1 54/4/1 53/4/1
f 58/4/1 54/4/1 57/4/1
f 59/4/1 56/4/1 55/4/1
f 60/4/1 56/4/1 59/4/1
f 65/4/1 62/4/1 61/4/1
f 66/4/1 62/4/1 65/4/1
f 67/4/1 64/4/1 63/4/1
f 68/4/1 64/4/1 67/4/1
f 73/4/1 70/4/1 69/4/1
f 74/4/1 70/4/1 73/4/1
f 75/4/1 72/4/1 71/4/1
f 76/4/1 72/4/1 75/4/1
f 81/4/1 78/4/1 77/4/1
f 82/4/1 78/4/1 81/4/1
f 83/4/1 80/4/1 79/4/1
f 84/4/1 80/4/1 83/4/1
f 89/4/1 86/4/1 85/4/1
f 90/4/1 86/4/1 89/4/1
f 91/4/1 88/4/1 87/4/1
f 92/4/1 88/4/1 91/4/1
f 97/4/1 94/4/1 93/4/1
f 98/4/1 94/4/1 97/4/1
f 99/4/1 96/4/1 95/4/1
f 100/4/1 96/4/1 99/4/1
f 105/4/1 102/4/1 101/4/1
f 106/4/1 102/4/1 105/4/1
f 107/4/1 104/4/1 103/4/1
f 108/4/1 104/4/1 107/4/1
f 117/4/1 114/4/1 113/4/1
f 118/4/1 114/4/1 117/4/1
f 119/2/1 110/2/1 109/2/1
f 120/2/1 112/2/1 111/2/1
f 121/4/1 116/4/1 115/4/1
f 122/4/1 116/4/1 121/4/1
f 123/2/1 119/2/1 109/2/1
f 123/2/1 120/2/1 119/2/1
f 124/2/1 112/2/1 120/2/1
f 124/2/1 120/2/1 123/2/1
f 125/2/1 123/2/1 109/2/1
f 126/2/1 112/2/1 124/2/1
f 127/2/1 125/2/1 109/2/1
f 127/2/1 126/2/1 125/2/1
f 128/2/1 112/2/1 126/2/1
f 128/2/1 126/2/1 127/2/1
f 129/2/1 127/2/1 109/2/1
f 130/2/1 112/2/1 128/2/1
f 131/2/1 129/2/1 109/2/1
f 131/2/1 130/2/1 129/2/1
f 132/2/1 112/2/1 130/2/1
f 132/2/1 130/2/1 131/2/1
f 133/2/1 131/2/1 109/2/1
f 134/2/1 112/2/1 132/2/1
f 135/2/1 133/2/1 109/2/1
f 135/2/1 134/2/1 133/2/1
f 136/2/1 112/2/1 134/2/1
f 136/2/1 134/2/1 135/2/1
f 137/2/1 135/2/1 109/2/1
f 138/2/1 112/2/1 136/2/1
f 139/2/1 137/2/1 109/2/1
f 139/2/1 138/2/1 137/2/1
f 140/2/1 112/2/1 138/2/1
f 140/2/1 138/2/1 139/2/1
f 141/2/1 139/2/1 109/2/1
f 142/2/1 139/2/1 141/2/1
f 143/2/1 112/2/1 140/2/1
f 144/2/1 112/2/1 143/2/1
f 151/2/1 146/2/1 145/2/1
f 152/2/1 146/2/1 151/2/1
f 153/2/1 148/2/1 147/2/1
f 154/2/1 148/2/1 153/2/1
f 155/2/1 150/2/1 149/2/1
f 156/2/1 150/2/1 155/2/1
f 161/4/1 158/4/1 157/4/1
f 162/4/1 158/4/1 161/4/1
f 163/4/1 160/4/1 159/4/1
f 164/4/1 160/4/1 163/4/1
f 169/4/1 166/4/1 165/4/1
f 170/4/1 166/4/1 169/4/1
f 171/4/1 168/4/1 167/4/1
f 172/4/1 168/4/1 171/4/1
f 177/4/1 174/4/1 173/4/1
f 178/4/1 174/4/1 177/4/1
f 179/4/1 176/4/1 175/4/1
f 180/4/1 176/4/1 179/4/1
f 183/2/1 182/2/1 181/2/1
f 184/2/1 182/2/1 183/2/1
f 185/2/1 183/2/1 181/2/1
f 186/4/1 184/4/1 183/4/1
f 186/2/1 183/2/1 185/2/1
f 187/2/1 182/2/1 184/2/1
f 187/4/1 184/4/1 186/4/1
f 188/2/1 182/2/1 187/2/1
f 189/2/1 185/2/1 181/2/1
f 190/4/1 186/4/1 185/4/1
f 190/2/1 185/2/1 189/2/1
f 191/2/1 187/2/1 186/2/1
f 192/2/1 187/2/1 191/2/1
f 193/2/1 182/2/1 188/2/1
f 193/4/1 188/4/1 187/4/1
f 194/2/1 182/2/1 193/2/1
f 195/2/1 189/2/1 181/2/1
f 195/4/1 190/4/1 189/4/1
f 196/4/1 186/4/1 190/4/1
f 196/4/1 190/4/1 195/4/1
f 197/4/1 192/4/1 191/4/1
f 198/4/1 192/4/1 197/4/1
f 199/4/1 192/4/1 198/4/1
f 200/4/1 192/4/1 199/4/1
f 201/4/1 194/4/1 193/4/1
f 201/4/1 193/4/1 187/4/1
f 202/2/1 182/2/1 194/2/1
f 202/4/1 194/4/1 201/4/1
f 203/2/1 195/2/1 181/2/1
f 203/2/1 196/2/1 195/2/1
f 204/4/1 186/4/1 196/4/1
f 204/2/1 196/2/1 203/2/1
f 205/2/1 191/2/1 186/2/1
f 206/4/1 197/4/1 191/4/1
f 206/2/1 191/2/1 205/2/1
f 207/2/1 198/2/1 197/2/1
f 207/4/1 197/4/1 206/4/1
f 208/4/1 199/4/1 198/4/1
f 208/2/1 198/2/1 207/2/1
f 209/2/1 200/2/1 199/2/1
f 209/4/1 199/4/1 208/4/1
f 210/4/1 192/4/1 200/4/1
f 210/2/1 200/2/1 209/2/1
f 211/2/1 187/2/1 192/2/1
f 211/4/1 192/4/1 210/4/1
f 212/2/1 187/2/1 211/2/1
f 213/4/1 201/4/1 187/4/1
f 213/2/1 202/2/1 201/2/1
f 214/2/1 182/2/1 202/2/1
f 214/2/1 202/2/1 213/2/1
f 215/2/1 203/2/1 181/2/1
f 215/4/1 204/4/1 203/4/1
f 216/4/1 186/4/1 204/4/1
f 216/4/1 204/4/1 215/4/1
f 217/2/1 205/2/1 186/2/1
f 217/1/1 206/1/1 205/1/1
f 218/2/1 210/2/1 209/2/1
f 218/1/1 206/1/1 217/1/1
f 218/2/1 209/2/1 208/2/1
f 218/2/1 211/2/1 210/2/1
f 218/2/1 208/2/1 207/2/1
f 218/2/1 207/2/1 206/2/1
f 219/1/1 212/1/1 211/1/1
f 219/2/1 211/2/1 218/2/1
f 220/2/1 187/2/1 212/2/1
f 220/1/1 212/1/1 219/1/1
f 221/4/1 213/4/1 187/4/1
f 221/4/1 214/4/1 213/4/1
f 222/2/1 182/2/1 214/2/1
f 222/4/1 214/4/1 221/4/1
f 223/2/1 219/2/1 218/2/1
f 223/2/1 220/2/1 219/2/1
f 223/2/1 218/2/1 217/2/1
f 224/2/1 220/2/1 223/2/1
f 225/2/1 223/2/1 217/2/1
f 226/4/1 224/4/1 223/4/1
f 226/2/1 223/2/1 225/2/1
f 227/2/1 220/2/1 224/2/1
f 227/4/1 224/4/1 226/4/1
f 228/2/1 220/2/1 227/2/1
f 229/2/1 217/2/1 186/2/1
f 229/2/1 225/2/1 217/2/1
f 230/4/1 226/4/1 225/4/1
f 230/2/1 225/2/1 229/2/1
f 231/2/1 227/2/1 226/2/1
f 231/4/1 226/4/1 230/4/1
f 232/4/1 228/4/1 227/4/1
f 232/2/1 227/2/1 231/2/1
f 233/2/1 220/2/1 228/2/1
f 233/4/1 228/4/1 232/4/1
f 234/2/1 187/2/1 220/2/1
f 234/2/1 220/2/1 233/2/1
f 235/4/1 186/4/1 216/4/1
f 235/2/1 229/2/1 186/2/1
f 236/4/1 230/4/1 229/4/1
f 236/2/1 229/2/1 235/2/1
f 237/2/1 232/2/1 231/2/1
f 237/4/1 230/4/1 236/4/1
f 237/2/1 233/2/1 232/2/1
f 237/2/1 231/2/1 230/2/1
f 238/4/1 234/4/1 233/4/1
f 238/2/1 233/2/1 237/2/1
f 239/2/1 187/2/1 234/2/1
f 239/4/1 234/4/1 238/4/1
f 240/4/1 221/4/1 187/4/1
f 240/2/1 187/2/1 239/2/1
f 241/4/1 236/4/1 235/4/1
f 241/4/1 235/4/1 216/4/1
f 241/2/1 216/2/1 215/2/1
f 242/2/1 239/2/1 238/2/1
f 242/4/1 236/4/1 241/4/1
f 242/2/1 237/2/1 236/2/1
f 242/2/1 238/2/1 237/2/1
f 243/4/1 240/4/1 239/4/1
f 243/2/1 239/2/1 242/2/1
f 244/4/1 221/4/1 240/4/1
f 244/4/1 240/4/1 243/4/1
f 244/2/1 222/2/1 221/2/1
f 245/2/1 243/2/1 242/2/1
f 245/2/1 242/2/1 241/2/1
f 245/2/1 244/2/1 243/2/1
f 245/2/1 215/2/1 181/2/1
f 245/2/1 241/2/1 215/2/1
f 246/2/1 182/2/1 222/2/1
f 246/2/1 244/2/1 245/2/1
f 246/2/1 222/2/1 244/2/1
f 247/2/2 248/2/2 249/2/2
f 249/2/2 248/2/2 250/2/2
f 251/4/2 252/4/2 253/4/2
f 253/4/2 252/4/2 254/4/2
f 247/2/2 249/2/2 255/2/2
f 250/2/2 248/2/2 256/2/2
f 247/2/2 255/2/2 257/2/2
f 255/2/2 256/2/2 257/2/2
f 256/2/2 248/2/2 258/2/2
f 257/2/2 256/2/2 258/2/2
f 259/4/2 260/4/2 263/4/2
f 263/4/2 260/4/2 264/4/2
f 261/4/2 262/4/2 265/4/2
f 265/4/2 262/4/2 266/4/2
f 267/4/2 268/4/2 271/4/2
f 271/4/2 268/4/2 272/4/2
f 269/4/2 270/4/2 273/4/2
f 273/4/2 270/4/2 274/4/2
f 275/4/2 276/4/2 279/4/2
f 279/4/2 276/4/2 280/4/2
f 277/4/2 278/4/2 281/4/2
f 281/4/2 278/4/2 282/4/2
f 283/4/2 284/4/2 287/4/2
f 287/4/2 284/4/2 288/4/2
f 285/4/2 286/4/2 289/4/2
f 289/4/2 286/4/2 290/4/2
f 291/4/2 292/4/2 296/4/2
f 296/4/2 292/4/2 297/4/2
f 293/4/2 294/4/2 298/4/2
f 298/4/2 294/4/2 299/4/2
f 296/5/2 297/5/2 301/5/2
f 295/5/2 296/5/2 301/5/2
f 301/5/2 297/5/2 302/5/2
f 299/5/2 300/5/2 303/5/2
f 298/5/2 299/5/2 303/5/2
f 303/5/2 300/5/2 304/5/2
f 305/4/2 306/4/2 307/4/2
f 307/4/2 306/4/2 308/4/2
f 308/4/2 306/4/2 309/4/2
f 309/4/2 306/4/2 310/4/2
f 308/4/2 309/4/2 311/4/2
f 311/4/2 309/4/2 312/4/2
f 313/2/2 314/2/2 315/2/2
f 315/2/2 314/2/2 316/2/2
f 317/4/2 318/4/2 321/4/2
f 321/4/2 318/4/2 322/4/2
f 319/4/2 320/4/2 323/4/2
f 323/4/2 320/4/2 324/4/2
f 325/4/2 326/4/2 329/4/2
f 329/4/2 326/4/2 330/4/2
f 327/4/2 328/4/2 331/4/2
f 331/4/2 328/4/2 332/4/2
f 333/4/2 334/4/2 337/4/2
f 337/4/2 334/4/2 338/4/2
f 335/4/2 336/4/2 339/4/2
f 339/4/2 336/4/2 340/4/2
f 341/4/2 342/4/2 345/4/2
f 345/4/2 342/4/2 346/4/2
f 343/4/2 344/4/2 347/4/2
f 347/4/2 344/4/2 348/4/2
f 349/4/2 350/4/2 351/4/2
f 351/4/2 350/4/2 352/4/2
f 353/4/2 354/4/2 357/4/2
f 357/4/2 354/4/2 358/4/2
f 355/4/2 356/4/2 359/4/2
f 359/4/2 356/4/2 360/4/2
f 361/4/2 362/4/2 365/4/2
f 365/4/2 362/4/2 366/4/2
f 363/4/2 364/4/2 371/4/2
f 371/4/2 364/4/2 372/4/2
f 373/4/2 374/4/2 377/4/2
f 377/4/2 374/4/2 378/4/2
f 375/4/2 376/4/2 379/4/2
f 379/4/2 376/4/2 380/4/2
f 367/2/2 368/2/2 381/2/2
f 369/2/2 370/2/2 382/2/2
f 367/2/2 381/2/2 383/2/2
f 381/2/2 382/2/2 383/2/2
f 382/2/2 370/2/2 384/2/2
f 383/2/2 382/2/2 384/2/2
f 367/2/2 383/2/2 385/2/2
f 384/2/2 370/2/2 386/2/2
f 367/2/2 385/2/2 387/2/2
f 385/2/2 386/2/2 387/2/2
f 386/2/2 370/2/2 388/2/2
f 387/2/2 386/2/2 388/2/2
f 367/2/2 387/2/2 389/2/2
f 388/2/2 370/2/2 390/2/2
f 367/2/2 389/2/2 391/2/2
f 389/2/2 390/2/2 391/2/2
f 390/2/2 370/2/2 392/2/2
f 391/2/2 390/2/2 392/2/2
f 367/2/2 391/2/2 393/2/2
f 392/2/2 370/2/2 394/2/2
f 367/2/2 393/2/2 395/2/2
f 393/2/2 394/2/2 395/2/2
f 394/2/2 370/2/2 396/2/2
f 395/2/2 394/2/2 396/2/2
f 367/2/2 395/2/2 397/2/2
f 396/2/2 370/2/2 398/2/2
f 367/2/2 397/2/2 399/2/2
f 397/2/2 398/2/2 399/2/2
f 398/2/2 370/2/2 400/2/2
f 399/2/2 398/2/2 400/2/2
f 367/2/2 399/2/2 401/2/2
f 401/2/2 399/2/2 402/2/2
f 400/2/2 370/2/2 403/2/2
f 403/2/2 370/2/2 404/2/2
f 405/4/2 406/4/2 409/4/2
f 409/4/2 406/4/2 410/4/2
f 407/4/2 408/4/2 411/4/2
f 411/4/2 408/4/2 412/4/2
f 413/4/2 414/4/2 417/4/2
f 417/4/2 414/4/2 418/4/2
f 415/4/2 416/4/2 419/4/2
f 419/4/2 416/4/2 420/4/2
f 421/4/2 422/4/2 425/4/2
f 425/4/2 422/4/2 426/4/2
f 423/4/2 424/4/2 427/4/2
f 427/4/2 424/4/2 428/4/2
f 429/2/2 430/2/2 431/2/2
f 431/2/2 430/2/2 432/2/2
f 432/2/2 430/2/2 433/2/2
f 433/2/2 430/2/2 434/2/2
f 429/2/2 431/2/2 435/2/2
f 431/3/2 432/3/2 435/3/2
f 432/2/2 433/2/2 436/2/2
f 435/3/2 432/3/2 436/3/2
f 436/2/2 433/2/2 437/2/2
f 437/2/2 433/2/2 438/2/2
f 433/3/2 434/3/2 439/3/2
f 438/2/2 433/2/2 439/2/2
f 434/2/2 430/2/2 440/2/2
f 439/3/2 434/3/2 440/3/2
f 437/2/2 438/2/2 441/2/2
f 436/3/2 437/3/2 441/3/2
f 438/3/2 439/3/2 442/3/2
f 441/2/2 438/2/2 442/2/2
f 436/3/2 441/3/2 443/3/2
f 435/2/2 436/2/2 443/2/2
f 441/3/2 442/3/2 443/3/2
f 443/3/2 442/3/2 444/3/2
f 444/3/2 442/3/2 445/3/2
f 445/3/2 442/3/2 446/3/2
f 442/3/2 439/3/2 447/3/2
f 446/3/2 442/3/2 447/3/2
f 439/2/2 440/2/2 448/2/2
f 447/3/2 439/3/2 448/3/2
f 443/2/2 444/2/2 449/2/2
f 444/3/2 445/3/2 449/3/2
f 445/2/2 446/2/2 450/2/2
f 449/3/2 445/3/2 450/3/2
f 450/2/2 446/2/2 451/2/2
f 451/2/2 446/2/2 452/2/2
f 446/3/2 447/3/2 453/3/2
f 452/2/2 446/2/2 453/2/2
f 447/2/2 448/2/2 454/2/2
f 453/3/2 447/3/2 454/3/2
f 449/2/2 450/2/2 455/2/2
f 450/3/2 451/3/2 455/3/2
f 451/2/2 452/2/2 456/2/2
f 455/3/2 451/3/2 456/3/2
f 452/3/2 453/3/2 457/3/2
f 456/2/2 452/2/2 457/2/2
f 453/2/2 454/2/2 458/2/2
f 457/3/2 453/3/2 458/3/2
f 455/2/2 456/2/2 459/2/2
f 456/3/2 457/3/2 459/3/2
f 457/2/2 458/2/2 460/2/2
f 459/3/2 457/3/2 460/3/2
f 443/2/2 449/2/2 461/2/2
f 429/2/2 435/2/2 461/2/2
f 459/2/2 460/2/2 461/2/2
f 455/2/2 459/2/2 461/2/2
f 449/2/2 455/2/2 461/2/2
f 435/2/2 443/2/2 461/2/2
f 461/2/2 460/2/2 462/2/2
f 462/2/2 460/2/2 463/2/2
f 463/2/2 460/2/2 464/2/2
f 460/2/2 458/2/2 465/2/2
f 464/2/2 460/2/2 465/2/2
f 440/2/2 430/2/2 465/2/2
f 454/2/2 448/2/2 465/2/2
f 458/2/2 454/2/2 465/2/2
f 448/2/2 440/2/2 465/2/2
f 465/2/2 430/2/2 466/2/2
f 462/2/2 463/2/2 467/2/2
f 463/3/2 464/3/2 468/3/2
f 467/2/2 463/2/2 468/2/2
f 468/3/2 464/3/2 469/3/2
f 462/2/2 467/2/2 470/2/2
f 467/3/2 468/3/2 471/3/2
f 470/2/2 467/2/2 471/2/2
f 468/2/2 469/2/2 472/2/2
f 471/3/2 468/3/2 472/3/2
f 464/2/2 465/2/2 473/2/2
f 465/3/2 466/3/2 474/3/2
f 473/2/2 465/2/2 474/2/2
f 466/2/2 430/2/2 475/2/2
f 474/3/2 466/3/2 475/3/2
f 475/2/2 430/2/2 476/2/2
f 461/3/2 462/3/2 477/3/2
f 462/2/2 470/2/2 477/2/2
f 470/3/2 471/3/2 478/3/2
f 477/2/2 470/2/2 478/2/2
f 471/2/2 472/2/2 479/2/2
f 478/3/2 471/3/2 479/3/2
f 464/2/2 473/2/2 480/2/2
f 473/3/2 474/3/2 481/3/2
f 480/2/2 473/2/2 481/2/2
f 474/2/2 475/2/2 482/2/2
f 481/3/2 474/3/2 482/3/2
f 475/3/2 476/3/2 483/3/2
f 482/2/2 475/2/2 483/2/2
f 476/2/2 430/2/2 484/2/2
f 483/3/2 476/3/2 484/3/2
f 484/2/2 430/2/2 485/2/2
f 429/2/2 461/2/2 486/2/2
f 461/3/2 477/3/2 486/3/2
f 477/3/2 478/3/2 486/3/2
f 478/2/2 479/2/2 487/2/2
f 486/3/2 478/3/2 487/3/2
f 469/3/2 464/3/2 488/3/2
f 487/2/2 479/2/2 488/2/2
f 472/2/2 469/2/2 488/2/2
f 479/2/2 472/2/2 488/2/2
f 464/2/2 480/2/2 489/2/2
f 488/3/2 464/3/2 489/3/2
f 480/3/2 481/3/2 490/3/2
f 489/2/2 480/2/2 490/2/2
f 482/2/2 483/2/2 491/2/2
f 490/3/2 481/3/2 491/3/2
f 481/2/2 482/2/2 491/2/2
f 483/2/2 484/2/2 491/2/2
f 484/3/2 485/3/2 492/3/2
f 491/2/2 484/2/2 492/2/2
f 485/2/2 430/2/2 493/2/2
f 492/3/2 485/3/2 493/3/2
f 486/2/2 487/2/2 494/2/2
f 487/2/2 488/2/2 494/2/2
f 492/2/2 493/2/2 494/2/2
f 490/2/2 491/2/2 494/2/2
f 488/2/2 489/2/2 494/2/2
f 429/2/2 486/2/2 494/2/2
f 491/2/2 492/2/2 494/2/2
f 489/2/2 490/2/2 494/2/2
f 493/2/2 430/2/2 495/2/2
f 494/2/2 493/2/2 495/2/2
f 499/4/3 497/4/3 496/4/3
f 500/4/3 497/4/3 499/4/3
f 501/4/3 497/4/3 500/4/3
f 502/4/3 497/4/3 501/4/3
f 504/4/3 499/4/3 498/4/3
f 504/4/3 500/4/3 499/4/3
f 505/4/3 500/4/3 504/4/3
f 506/4/3 503/4/3 502/4/3
f 506/4/3 502/4/3 501/4/3
f 507/4/3 503/4/3 506/4/3
f 508/4/3 504/4/3 498/4/3
f 511/4/3 503/4/3 507/4/3
f 512/4/3 509/4/3 508/4/3
f 512/4/3 508/4/3 498/4/3
f 513/4/3 509/4/3 512/4/3
f 514/4/3 509/4/3 513/4/3
f 515/4/3 511/4/3 510/4/3
f 516/4/3 503/4/3 511/4/3
f 516/4/3 511/4/3 515/4/3
f 517/4/3 503/4/3 516/4/3
f 518/4/3 514/4/3 513/4/3
f 518/4/3 515/4/3 514/4/3
f 518/4/3 516/4/3 515/4/3
f 519/4/3 516/4/3 518/4/3
f 523/4/3 521/4/3 520/4/3
f 524/4/3 521/4/3 523/4/3
f 525/4/3 521/4/3 524/4/3
f 526/4/3 521/4/3 525/4/3
f 528/4/3 523/4/3 522/4/3
f 528/4/3 524/4/3 523/4/3
f 529/4/3 524/4/3 528/4/3
f 530/4/3 526/4/3 525/4/3
f 530/4/3 527/4/3 526/4/3
f 531/4/3 527/4/3 530/4/3
f 532/4/3 528/4/3 522/4/3
f 535/4/3 527/4/3 531/4/3
f 536/4/3 533/4/3 532/4/3
f 536/4/3 532/4/3 522/4/3
f 537/4/3 533/4/3 536/4/3
f 538/4/3 533/4/3 537/4/3
f 539/4/3 535/4/3 534/4/3
f 540/4/3 527/4/3 535/4/3
f 540/4/3 535/4/3 539/4/3
f 541/4/3 527/4/3 540/4/3
f 542/4/3 538/4/3 537/4/3
f 542/4/3 539/4/3 538/4/3
f 542/4/3 540/4/3 539/4/3
f 543/4/3 540/4/3 542/4/3
f 547/6/3 545/6/3 544/6/3
f 548/6/3 545/6/3 547/6/3
f 550/6/3 547/6/3 546/6/3
f 550/6/3 549/6/3 548/6/3
f 550/6/3 548/6/3 547/6/3
f 551/6/3 549/6/3 550/6/3
f 552/6/3 549/6/3 551/6/3
f 553/6/3 549/6/3 552/6/3
f 554/6/3 552/6/3 551/6/3
f 555/6/3 552/6/3 554/6/3
f 559/6/3 557/6/3 556/6/3
f 560/6/3 557/6/3 559/6/3
f 562/6/3 560/6/3 559/6/3
f 562/6/3 561/6/3 560/6/3
f 562/6/3 559/6/3 558/6/3
f 563/6/3 561/6/3 562/6/3
f 564/6/3 561/6/3 563/6/3
f 565/6/3 561/6/3 564/6/3
f 566/6/3 564/6/3 563/6/3
f 567/6/3 564/6/3 566/6/3
f 570/2/3 569/2/3 568/2/3
f 571/2/3 569/2/3 570/2/3
f 572/3/3 571/3/3 570/3/3
f 572/2/3 569/2/3 571/2/3
f 573/2/3 569/2/3 572/2/3
f 574/2/3 570/2/3 568/2/3
f 575/2/3 570/2/3 574/2/3
f 576/3/3 572/3/3 570/3/3
f 576/3/3 573/3/3 572/3/3
f 577/3/3 573/3/3 576/3/3
f 578/2/3 569/2/3 573/2/3
f 578/3/3 573/3/3 577/3/3
f 579/2/3 569/2/3 578/2/3
f 580/2/3 570/2/3 575/2/3
f 581/2/3 570/2/3 580/2/3
f 582/3/3 576/3/3 570/3/3
f 582/2/3 570/2/3 581/2/3
f 583/2/3 577/2/3 576/2/3
f 583/3/3 576/3/3 582/3/3
f 584/2/3 577/2/3 583/2/3
f 585/3/3 579/3/3 578/3/3
f 585/2/3 577/2/3 584/2/3
f 585/3/3 578/3/3 577/3/3
f 586/3/3 579/3/3 585/3/3
f 587/3/3 579/3/3 586/3/3
f 588/3/3 579/3/3 587/3/3
f 589/2/3 569/2/3 579/2/3
f 589/3/3 579/3/3 588/3/3
f 590/2/3 569/2/3 589/2/3
f 591/2/3 588/2/3 587/2/3
f 591/3/3 590/3/3 589/3/3
f 591/3/3 589/3/3 588/3/3
f 592/3/3 590/3/3 591/3/3
f 593/3/3 584/3/3 583/3/3
f 593/2/3 585/2/3 584/2/3
f 593/2/3 586/2/3 585/2/3
f 594/2/3 586/2/3 593/2/3
f 595/3/3 587/3/3 586/3/3
f 595/2/3 592/2/3 591/2/3
f 595/2/3 591/2/3 587/2/3
f 596/2/3 592/2/3 595/2/3
f 597/2/3 592/2/3 596/2/3
f 598/3/3 590/3/3 592/3/3
f 598/2/3 592/2/3 597/2/3
f 600/2/3 582/2/3 581/2/3
f 600/2/3 583/2/3 582/2/3
f 601/3/3 594/3/3 593/3/3
f 601/3/3 593/3/3 583/3/3
f 601/2/3 583/2/3 600/2/3
f 602/3/3 594/3/3 601/3/3
f 603/2/3 586/2/3 594/2/3
f 603/3/3 594/3/3 602/3/3
f 604/2/3 586/2/3 603/2/3
f 605/2/3 597/2/3 596/2/3
f 605/3/3 596/3/3 595/3/3
f 606/3/3 598/3/3 597/3/3
f 606/2/3 597/2/3 605/2/3
f 607/3/3 590/3/3 598/3/3
f 607/3/3 598/3/3 606/3/3
f 608/2/3 569/2/3 590/2/3
f 608/3/3 590/3/3 607/3/3
f 610/2/3 602/2/3 601/2/3
f 610/2/3 600/2/3 599/2/3
f 610/2/3 601/2/3 600/2/3
f 611/3/3 604/3/3 603/3/3
f 611/3/3 603/3/3 602/3/3
f 611/2/3 602/2/3 610/2/3
f 612/3/3 604/3/3 611/3/3
f 613/2/3 586/2/3 604/2/3
f 613/3/3 604/3/3 612/3/3
f 614/3/3 606/3/3 605/3/3
f 614/2/3 586/2/3 613/2/3
f 614/3/3 607/3/3 606/3/3
f 614/3/3 605/3/3 595/3/3
f 614/3/3 595/3/3 586/3/3
f 615/3/3 607/3/3 614/3/3
f 616/2/3 608/2/3 607/2/3
f 616/3/3 607/3/3 615/3/3
f 617/2/3 611/2/3 610/2/3
f 617/2/3 612/2/3 611/2/3
f 617/2/3 610/2/3 609/2/3
f 618/2/3 612/2/3 617/2/3
f 619/3/3 613/3/3 612/3/3
f 619/2/3 612/2/3 618/2/3
f 619/3/3 615/3/3 614/3/3
f 619/3/3 614/3/3 613/3/3
f 620/2/3 616/2/3 615/2/3
f 620/3/3 615/3/3 619/3/3
f 621/3/3 618/3/3 617/3/3
f 621/2/3 617/2/3 609/2/3
f 622/3/3 618/3/3 621/3/3
f 623/2/3 619/2/3 618/2/3
f 623/3/3 618/3/3 622/3/3
f 623/2/3 620/2/3 619/2/3
f 624/2/3 620/2/3 623/2/3
f 625/2/3 622/2/3 621/2/3
f 625/3/3 623/3/3 622/3/3
f 625/3/3 624/3/3 623/3/3
f 626/3/3 624/3/3 625/3/3
f 627/2/3 620/2/3 624/2/3
f 627/3/3 624/3/3 626/3/3
f 628/2/3 620/2/3 627/2/3
f 629/2/3 626/2/3 625/2/3
f 629/3/3 627/3/3 626/3/3
f 629/3/3 628/3/3 627/3/3
f 630/3/3 628/3/3 629/3/3
f 631/2/3 620/2/3 628/2/3
f 631/3/3 628/3/3 630/3/3
f 632/2/3 616/2/3 620/2/3
f 632/2/3 620/2/3 631/2/3
f 633/3/3 631/3/3 630/3/3
f 633/3/3 632/3/3 631/3/3
f 634/3/3 632/3/3 633/3/3
f 635/2/3 616/2/3 632/2/3
f 635/3/3 632/3/3 634/3/3
f 636/2/3 616/2/3 635/2/3
f 637/2/3 634/2/3 633/2/3
f 637/3/3 635/3/3 634/3/3
f 637/3/3 636/3/3 635/3/3
f 638/3/3 636/3/3 637/3/3
f 639/2/3 616/2/3 636/2/3
f 639/3/3 636/3/3 638/3/3
f 640/2/3 608/2/3 616/2/3
f 640/2/3 616/2/3 639/2/3
f 641/2/3 630/2/3 629/2/3
f 641/2/3 621/2/3 609/2/3
f 641/2/3 625/2/3 621/2/3
f 641/2/3 629/2/3 625/2/3
f 642/3/3 633/3/3 630/3/3
f 642/2/3 630/2/3 641/2/3
f 643/2/3 638/2/3 637/2/3
f 643/3/3 633/3/3 642/3/3
f 643/2/3 637/2/3 633/2/3
f 644/3/3 639/3/3 638/3/3
f 644/2/3 638/2/3 643/2/3
f 644/3/3 640/3/3 639/3/3
f 645/3/3 640/3/3 644/3/3
f 646/2/3 608/2/3 640/2/3
f 646/3/3 640/3/3 645/3/3
f 647/3/3 642/3/3 641/3/3
f 647/3/3 643/3/3 642/3/3
f 647/3/3 645/3/3 644/3/3
f 647/3/3 644/3/3 643/3/3
f 647/2/3 641/2/3 609/2/3
f 648/2/3 646/2/3 645/2/3
f 648/3/3 645/3/3 647/3/3
f 649/2/3 648/2/3 647/2/3
f 650/2/3 648/2/3 649/2/3
f 651/2/3 648/2/3 650/2/3
f 652/2/3 646/2/3 648/2/3
f 652/2/3 648/2/3 651/2/3
f 653/2/3 651/2/3 650/2/3
f 653/3/3 650/3/3 649/3/3
f 654/2/3 651/2/3 653/2/3
f 655/2/3 651/2/3 654/2/3
f 656/3/3 652/3/3 651/3/3
f 656/2/3 651/2/3 655/2/3
f 657/3/3 652/3/3 656/3/3
f 658/3/3 652/3/3 657/3/3
f 659/2/3 646/2/3 652/2/3
f 659/3/3 652/3/3 658/3/3
f 660/2/3 608/2/3 646/2/3
f 660/2/3 646/2/3 659/2/3
f 661/2/3 649/2/3 647/2/3
f 661/3/3 653/3/3 649/3/3
f 661/3/3 654/3/3 653/3/3
f 662/3/3 654/3/3 661/3/3
f 663/2/3 655/2/3 654/2/3
f 663/3/3 654/3/3 662/3/3
f 664/2/3 655/2/3 663/2/3
f 665/2/3 655/2/3 664/2/3
f 666/3/3 657/3/3 656/3/3
f 666/2/3 655/2/3 665/2/3
f 666/3/3 656/3/3 655/3/3
f 667/2/3 658/2/3 657/2/3
f 667/3/3 657/3/3 666/3/3
f 668/3/3 659/3/3 658/3/3
f 668/2/3 658/2/3 667/2/3
f 668/3/3 660/3/3 659/3/3
f 669/3/3 660/3/3 668/3/3
f 670/2/3 662/2/3 661/2/3
f 670/3/3 663/3/3 662/3/3
f 670/3/3 664/3/3 663/3/3
f 671/3/3 664/3/3 670/3/3
f 672/2/3 665/2/3 664/2/3
f 672/3/3 664/3/3 671/3/3
f 673/3/3 666/3/3 665/3/3
f 673/2/3 665/2/3 672/2/3
f 674/3/3 672/3/3 671/3/3
f 674/2/3 671/2/3 670/2/3
f 674/3/3 673/3/3 672/3/3
f 675/2/3 667/2/3 666/2/3
f 675/3/3 673/3/3 674/3/3
f 675/3/3 666/3/3 673/3/3
f 675/2/3 669/2/3 668/2/3
f 675/2/3 668/2/3 667/2/3
f 676/2/3 669/2/3 675/2/3
f 677/3/3 660/3/3 669/3/3
f 677/2/3 669/2/3 676/2/3
f 678/2/3 676/2/3 675/2/3
f 678/2/3 675/2/3 674/2/3
f 678/3/3 677/3/3 676/3/3
f 679/2/3 608/2/3 660/2/3
f 679/3/3 677/3/3 678/3/3
f 679/3/3 660/3/3 677/3/3
f 680/2/3 674/2/3 670/2/3
f 680/2/3 647/2/3 609/2/3
f 680/2/3 679/2/3 678/2/3
f 680/2/3 670/2/3 661/2/3
f 680/2/3 678/2/3 674/2/3
f 680/2/3 661/2/3 647/2/3
f 681/2/3 679/2/3 680/2/3
f 682/3/3 681/3/3 680/3/3
f 683/3/3 681/3/3 682/3/3
f 684/3/3 681/3/3 683/3/3
f 685/3/3 681/3/3 684/3/3
f 686/2/3 679/2/3 681/2/3
f 686/3/3 681/3/3 685/3/3
f 687/2/3 608/2/3 679/2/3
f 687/2/3 679/2/3 686/2/3
f 688/3/3 686/3/3 685/3/3
f 688/2/3 685/2/3 684/2/3
f 688/3/3 687/3/3 686/3/3
f 689/3/3 687/3/3 688/3/3
f 690/2/3 680/2/3 609/2/3
f 691/2/3 680/2/3 690/2/3
f 692/2/3 680/2/3 691/2/3
f 693/2/3 680/2/3 692/2/3
f 694/3/3 684/3/3 683/3/3
f 694/2/3 683/2/3 682/2/3
f 695/2/3 688/2/3 684/2/3
f 695/3/3 684/3/3 694/3/3
f 695/2/3 689/2/3 688/2/3
f 696/3/3 687/3/3 689/3/3
f 696/2/3 689/2/3 695/2/3
f 697/2/3 608/2/3 687/2/3
f 697/3/3 687/3/3 696/3/3
f 698/2/3 680/2/3 693/2/3
f 698/3/3 682/3/3 680/3/3
f 699/2/3 696/2/3 695/2/3
f 699/3/3 682/3/3 698/3/3
f 699/2/3 695/2/3 694/2/3
f 699/2/3 697/2/3 696/2/3
f 699/2/3 694/2/3 682/2/3
f 701/2/3 698/2/3 693/2/3
f 701/2/3 699/2/3 698/2/3
f 703/2/3 701/2/3 700/2/3
f 704/2/3 703/2/3 702/2/3
f 705/2/3 697/2/3 699/2/3
f 705/2/3 703/2/3 704/2/3
f 705/2/3 569/2/3 608/2/3
f 705/2/3 701/2/3 703/2/3
f 705/2/3 608/2/3 697/2/3
f 705/2/3 699/2/3 701/2/3
f 708/2/3 707/2/3 706/2/3
f 709/2/3 707/2/3 708/2/3
f 710/2/3 707/2/3 709/2/3
f 713/4/3 712/4/3 711/4/3
f 714/4/3 712/4/3 713/4/3
f 717/4/3 716/4/3 715/4/3
f 718/4/3 716/4/3 717/4/3
f 721/4/3 720/4/3 719/4/3
f 722/4/3 720/4/3 721/4/3
f 725/4/3 724/4/3 723/4/3
f 726/4/3 724/4/3 725/4/3
f 727/4/3 725/4/3 723/4/3
f 728/4/3 725/4/3 727/4/3
f 732/4/3 730/4/3 729/4/3
f 733/5/3 731/5/3 730/5/3
f 733/4/3 730/4/3 732/4/3
f 734/5/3 731/5/3 733/5/3
f 735/5/3 731/5/3 734/5/3
f 738/4/3 737/4/3 736/4/3
f 739/4/3 737/4/3 738/4/3
f 742/4/3 741/4/3 740/4/3
f 743/4/3 741/4/3 742/4/3
f 746/4/3 745/4/3 744/4/3
f 747/4/3 745/4/3 746/4/3
f 750/4/3 749/4/3 748/4/3
f 751/4/3 749/4/3 750/4/3
f 764/2/3 753/2/3 752/2/3
f 765/2/3 753/2/3 764/2/3
f 766/2/3 755/2/3 754/2/3
f 767/2/3 755/2/3 766/2/3
f 768/2/3 757/2/3 756/2/3
f 769/2/3 757/2/3 768/2/3
f 770/2/3 759/2/3 758/2/3
f 771/2/3 759/2/3 770/2/3
f 772/2/3 761/2/3 760/2/3
f 773/2/3 761/2/3 772/2/3
f 774/2/3 763/2/3 762/2/3
f 775/2/3 763/2/3 774/2/3
f 776/2/3 763/2/3 775/2/3
f 779/2/3 778/2/3 777/2/3
f 780/2/3 778/2/3 779/2/3
f 783/2/3 782/2/3 781/2/3
f 784/2/3 782/2/3 783/2/3
f 787/2/3 786/2/3 785/2/3
f 788/2/3 786/2/3 787/2/3
f 789/2/3 786/2/3 788/2/3
f 790/2/3 786/2/3 789/2/3
f 791/2/3 786/2/3 790/2/3
f 792/2/3 786/2/3 791/2/3
f 793/2/3 789/2/3 788/2/3
f 793/4/3 790/4/3 789/4/3
f 794/2/3 791/2/3 790/2/3
f 794/4/3 790/4/3 793/4/3
f 795/2/3 793/2/3 788/2/3
f 795/2/3 794/2/3 793/2/3
f 796/2/3 791/2/3 794/2/3
f 796/2/3 794/2/3 795/2/3
f 797/2/3 787/2/3 785/2/3
f 797/4/3 788/4/3 787/4/3
f 798/2/3 795/2/3 788/2/3
f 798/4/3 788/4/3 797/4/3
f 799/2/3 791/2/3 796/2/3
f 799/4/3 792/4/3 791/4/3
f 800/2/3 786/2/3 792/2/3
f 800/4/3 792/4/3 799/4/3
f 801/2/3 799/2/3 796/2/3
f 801/2/3 800/2/3 799/2/3
f 802/2/3 786/2/3 800/2/3
f 802/2/3 800/2/3 801/2/3
f 803/2/3 795/2/3 798/2/3
f 803/4/3 796/4/3 795/4/3
f 803/2/3 798/2/3 797/2/3
f 804/2/3 801/2/3 796/2/3
f 804/4/3 796/4/3 803/4/3
f 805/4/3 802/4/3 801/4/3
f 805/2/3 801/2/3 804/2/3
f 806/2/3 786/2/3 802/2/3
f 806/4/3 802/4/3 805/4/3
f 807/2/3 805/2/3 804/2/3
f 807/2/3 804/2/3 803/2/3
f 807/2/3 806/2/3 805/2/3
f 808/2/3 786/2/3 806/2/3
f 808/2/3 806/2/3 807/2/3
f 809/2/3 807/2/3 803/2/3
f 809/4/3 808/4/3 807/4/3
f 810/2/3 786/2/3 808/2/3
f 810/4/3 808/4/3 809/4/3
f 811/2/3 809/2/3 803/2/3
f 811/2/3 810/2/3 809/2/3
f 812/2/3 786/2/3 810/2/3
f 812/2/3 810/2/3 811/2/3
f 813/2/3 811/2/3 803/2/3
f 813/4/3 812/4/3 811/4/3
f 814/2/3 786/2/3 812/2/3
f 814/4/3 812/4/3 813/4/3
f 815/2/3 813/2/3 803/2/3
f 815/2/3 797/2/3 785/2/3
f 815/2/3 814/2/3 813/2/3
f 815/2/3 803/2/3 797/2/3
f 816/2/3 814/2/3 815/2/3
f 817/2/3 814/2/3 816/2/3
f 818/2/3 814/2/3 817/2/3
f 819/2/3 814/2/3 818/2/3
f 820/2/3 786/2/3 814/2/3
f 820/2/3 814/2/3 819/2/3
f 821/2/3 815/2/3 785/2/3
f 821/4/3 816/4/3 815/4/3
f 822/2/3 817/2/3 816/2/3
f 822/4/3 816/4/3 821/4/3
f 823/4/3 818/4/3 817/4/3
f 823/2/3 817/2/3 822/2/3
f 824/2/3 819/2/3 818/2/3
f 824/4/3 818/4/3 823/4/3
f 825/2/3 823/2/3 822/2/3
f 825/2/3 821/2/3 785/2/3
f 825/2/3 824/2/3 823/2/3
f 825/2/3 822/2/3 821/2/3
f 826/2/3 824/2/3 825/2/3
f 827/2/3 824/2/3 826/2/3
f 828/2/3 819/2/3 824/2/3
f 828/2/3 824/2/3 827/2/3
f 829/4/3 820/4/3 819/4/3
f 829/2/3 819/2/3 828/2/3
f 830/2/3 786/2/3 820/2/3
f 830/4/3 820/4/3 829/4/3
f 831/2/3 829/2/3 828/2/3
f 831/2/3 830/2/3 829/2/3
f 832/2/3 786/2/3 830/2/3
f 832/2/3 830/2/3 831/2/3
f 833/2/3 825/2/3 785/2/3
f 833/4/3 826/4/3 825/4/3
f 834/2/3 827/2/3 826/2/3
f 834/4/3 826/4/3 833/4/3
f 835/4/3 828/4/3 827/4/3
f 835/2/3 827/2/3 834/2/3
f 836/2/3 831/2/3 828/2/3
f 836/4/3 828/4/3 835/4/3
f 837/4/3 832/4/3 831/4/3
f 837/2/3 831/2/3 836/2/3
f 838/2/3 786/2/3 832/2/3
f 838/4/3 832/4/3 837/4/3
f 839/2/3 833/2/3 785/2/3
f 839/2/3 835/2/3 834/2/3
f 839/2/3 838/2/3 837/2/3
f 839/2/3 836/2/3 835/2/3
f 839/2/3 837/2/3 836/2/3
f 839/2/3 834/2/3 833/2/3
f 840/2/3 838/2/3 839/2/3
f 841/2/3 838/2/3 840/2/3
f 842/2/3 786/2/3 838/2/3
f 842/2/3 838/2/3 841/2/3
f 843/2/3 839/2/3 785/2/3
f 843/4/3 840/4/3 839/4/3
f 844/2/3 841/2/3 840/2/3
f 844/4/3 840/4/3 843/4/3
f 845/4/3 842/4/3 841/4/3
f 845/2/3 841/2/3 844/2/3
f 845/2/3 844/2/3 843/2/3
f 846/2/3 786/2/3 842/2/3
f 846/4/3 842/4/3 845/4/3
f 847/2/3 845/2/3 843/2/3
f 847/2/3 846/2/3 845/2/3
f 848/2/3 786/2/3 846/2/3
f 848/2/3 846/2/3 847/2/3
f 849/2/3 847/2/3 843/2/3
f 849/4/3 848/4/3 847/4/3
f 850/2/3 786/2/3 848/2/3
f 850/4/3 848/4/3 849/4/3
f 851/2/3 843/2/3 785/2/3
f 851/2/3 849/2/3 843/2/3
f 851/2/3 850/2/3 849/2/3
f 852/2/3 786/2/3 850/2/3
f 852/2/3 850/2/3 851/2/3
f 855/4/3 854/4/3 853/4/3
f 856/4/3 854/4/3 855/4/3
f 859/4/3 858/4/3 857/4/3
f 860/4/3 858/4/3 859/4/3
f 861/4/4 862/4/4 863/4/4
f 863/4/4 862/4/4 864/4/4
f 865/4/4 866/4/4 867/4/4
f 867/4/4 866/4/4 868/4/4
f 869/2/4 870/2/4 871/2/4
f 871/2/4 870/2/4 872/2/4
f 869/2/4 871/2/4 873/2/4
f 871/4/4 872/4/4 873/4/4
f 872/2/4 870/2/4 874/2/4
f 873/4/4 872/4/4 874/4/4
f 869/2/4 873/2/4 875/2/4
f 873/2/4 874/2/4 875/2/4
f 874/2/4 870/2/4 876/2/4
f 875/2/4 874/2/4 876/2/4
f 869/2/4 875/2/4 877/2/4
f 877/2/4 875/2/4 878/2/4
f 869/2/4 877/2/4 879/2/4
f 877/4/4 878/4/4 879/4/4
f 878/2/4 875/2/4 880/2/4
f 879/4/4 878/4/4 880/4/4
f 875/4/4 876/4/4 881/4/4
f 880/2/4 875/2/4 881/2/4
f 876/2/4 870/2/4 882/2/4
f 881/4/4 876/4/4 882/4/4
f 880/2/4 881/2/4 883/2/4
f 879/2/4 880/2/4 883/2/4
f 881/2/4 882/2/4 883/2/4
f 869/2/4 879/2/4 883/2/4
f 883/2/4 882/2/4 884/2/4
f 869/2/4 883/2/4 885/2/4
f 883/4/4 884/4/4 885/4/4
f 884/2/4 882/2/4 886/2/4
f 885/4/4 884/4/4 886/4/4
f 869/2/4 885/2/4 887/2/4
f 885/2/4 886/2/4 887/2/4
f 886/2/4 882/2/4 888/2/4
f 887/2/4 886/2/4 888/2/4
f 888/2/4 882/2/4 889/2/4
f 889/2/4 882/2/4 890/2/4
f 888/2/4 889/2/4 891/2/4
f 889/4/4 890/4/4 891/4/4
f 890/2/4 882/2/4 892/2/4
f 891/4/4 890/4/4 892/4/4
f 888/2/4 891/2/4 893/2/4
f 891/2/4 892/2/4 893/2/4
f 892/2/4 882/2/4 894/2/4
f 893/2/4 892/2/4 894/2/4
f 894/2/4 882/2/4 895/2/4
f 882/2/4 870/2/4 896/2/4
f 895/2/4 882/2/4 896/2/4
f 869/2/4 887/2/4 897/2/4
f 887/4/4 888/4/4 897/4/4
f 888/2/4 893/2/4 898/2/4
f 897/4/4 888/4/4 898/4/4
f 893/4/4 894/4/4 899/4/4
f 898/2/4 893/2/4 899/2/4
f 894/2/4 895/2/4 900/2/4
f 899/4/4 894/4/4 900/4/4
f 895/4/4 896/4/4 901/4/4
f 900/2/4 895/2/4 901/2/4
f 896/2/4 870/2/4 902/2/4
f 901/4/4 896/4/4 902/4/4
f 898/2/4 899/2/4 903/2/4
f 900/2/4 901/2/4 903/2/4
f 901/2/4 902/2/4 903/2/4
f 897/2/4 898/2/4 903/2/4
f 869/2/4 897/2/4 903/2/4
f 899/2/4 900/2/4 903/2/4
f 903/2/4 902/2/4 904/2/4
f 904/2/4 902/2/4 905/2/4
f 905/2/4 902/2/4 906/2/4
f 906/2/4 902/2/4 907/2/4
f 902/2/4 870/2/4 908/2/4
f 907/2/4 902/2/4 908/2/4
f 906/2/4 907/2/4 909/2/4
f 907/4/4 908/4/4 909/4/4
f 908/2/4 870/2/4 910/2/4
f 909/4/4 908/4/4 910/4/4
f 906/2/4 909/2/4 911/2/4
f 909/2/4 910/2/4 911/2/4
f 910/2/4 870/2/4 912/2/4
f 911/2/4 910/2/4 912/2/4
f 869/2/4 903/2/4 913/2/4
f 903/4/4 904/4/4 913/4/4
f 904/2/4 905/2/4 914/2/4
f 913/4/4 904/4/4 914/4/4
f 905/4/4 906/4/4 915/4/4
f 914/2/4 905/2/4 915/2/4
f 906/2/4 911/2/4 916/2/4
f 915/4/4 906/4/4 916/4/4
f 911/4/4 912/4/4 917/4/4
f 916/2/4 911/2/4 917/2/4
f 912/2/4 870/2/4 918/2/4
f 917/4/4 912/4/4 918/4/4
f 914/2/4 915/2/4 919/2/4
f 916/2/4 917/2/4 919/2/4
f 917/2/4 918/2/4 919/2/4
f 913/2/4 914/2/4 919/2/4
f 869/2/4 913/2/4 919/2/4
f 915/2/4 916/2/4 919/2/4
f 919/2/4 918/2/4 920/2/4
f 920/2/4 918/2/4 921/2/4
f 921/2/4 918/2/4 922/2/4
f 922/2/4 918/2/4 923/2/4
f 923/2/4 918/2/4 924/2/4
f 924/2/4 918/2/4 925/2/4
f 918/2/4 870/2/4 926/2/4
f 925/2/4 918/2/4 926/2/4
f 869/2/4 919/2/4 927/2/4
f 919/4/4 920/4/4 927/4/4
f 920/2/4 921/2/4 928/2/4
f 927/4/4 920/4/4 928/4/4
f 921/4/4 922/4/4 929/4/4
f 928/2/4 921/2/4 929/2/4
f 922/2/4 923/2/4 930/2/4
f 929/4/4 922/4/4 930/4/4
f 923/4/4 924/4/4 931/4/4
f 930/2/4 923/2/4 931/2/4
f 924/2/4 925/2/4 932/2/4
f 931/4/4 924/4/4 932/4/4
f 925/4/4 926/4/4 933/4/4
f 932/2/4 925/2/4 933/2/4
f 926/2/4 870/2/4 934/2/4
f 933/4/4 926/4/4 934/4/4
f 930/2/4 931/2/4 935/2/4
f 932/2/4 933/2/4 935/2/4
f 933/2/4 934/2/4 935/2/4
f 929/2/4 930/2/4 935/2/4
f 928/2/4 929/2/4 935/2/4
f 927/2/4 928/2/4 935/2/4
f 869/2/4 927/2/4 935/2/4
f 931/2/4 932/2/4 935/2/4
f 934/2/4 870/2/4 936/2/4
f 935/2/4 934/2/4 936/2/4
f 937/2/4 938/2/4 939/2/4
f 939/2/4 938/2/4 940/2/4
f 941/2/4 942/2/4 943/2/4
f 943/2/4 942/2/4 944/2/4
f 945/2/4 946/2/4 957/2/4
f 957/2/4 946/2/4 958/2/4
f 947/2/4 948/2/4 959/2/4
f 959/2/4 948/2/4 960/2/4
f 949/2/4 950/2/4 961/2/4
f 961/2/4 950/2/4 962/2/4
f 951/2/4 952/2/4 963/2/4
f 963/2/4 952/2/4 964/2/4
f 953/2/4 954/2/4 965/2/4
f 965/2/4 954/2/4 966/2/4
f 955/2/4 956/2/4 967/2/4
f 967/2/4 956/2/4 968/2/4
f 968/2/4 956/2/4 969/2/4
f 970/4/4 971/4/4 972/4/4
f 972/4/4 971/4/4 973/4/4
f 974/4/4 975/4/4 976/4/4
f 976/4/4 975/4/4 977/4/4
f 978/4/4 979/4/4 980/4/4
f 980/4/4 979/4/4 981/4/4
f 982/4/4 983/4/4 984/4/4
f 984/4/4 983/4/4 985/4/4
f 986/4/4 987/4/4 989/4/4
f 987/5/4 988/5/4 990/5/4
f 989/4/4 987/4/4 990/4/4
f 990/5/4 988/5/4 991/5/4
f 991/5/4 988/5/4 992/5/4
f 993/4/4 994/4/4 995/4/4
f 995/4/4 994/4/4 996/4/4
f 993/4/4 995/4/4 997/4/4
f 997/4/4 995/4/4 998/4/4
f 999/4/4 1000/4/4 1001/4/4
f 1001/4/4 1000/4/4 1002/4/4
f 1003/4/4 1004/4/4 1005/4/4
f 1005/4/4 1004/4/4 1006/4/4
f 1007/4/4 1008/4/4 1009/4/4
f 1009/4/4 1008/4/4 1010/4/4
f 1011/2/4 1012/2/4 1013/2/4
f 1013/2/4 1012/2/4 1014/2/4
f 1014/2/4 1012/2/4 1015/2/4
f 1016/2/4 1017/2/4 1018/2/4
f 1018/2/4 1017/2/4 1019/2/4
f 1019/2/4 1017/2/4 1020/2/4
f 1020/2/4 1017/2/4 1021/2/4
f 1021/2/4 1017/2/4 1022/2/4
f 1022/2/4 1017/2/4 1023/2/4
f 1021/2/4 1022/2/4 1024/2/4
f 1022/3/4 1023/3/4 1025/3/4
f 1024/2/4 1022/2/4 1025/2/4
f 1021/2/4 1024/2/4 1027/2/4
f 1027/2/4 1024/2/4 1028/2/4
f 1028/2/4 1024/2/4 1029/2/4
f 1029/2/4 1024/2/4 1030/2/4
f 1024/3/4 1025/3/4 1031/3/4
f 1030/2/4 1024/2/4 1031/2/4
f 1025/3/4 1023/3/4 1032/3/4
f 1031/3/4 1025/3/4 1032/3/4
f 1023/2/4 1017/2/4 1033/2/4
f 1032/3/4 1023/3/4 1033/3/4
f 1026/2/4 1027/2/4 1035/2/4
f 1027/2/4 1028/2/4 1035/2/4
f 1028/3/4 1029/3/4 1036/3/4
f 1035/2/4 1028/2/4 1036/2/4
f 1036/3/4 1029/3/4 1037/3/4
f 1029/2/4 1030/2/4 1038/2/4
f 1037/3/4 1029/3/4 1038/3/4
f 1038/2/4 1030/2/4 1039/2/4
f 1039/2/4 1030/2/4 1040/2/4
f 1031/3/4 1032/3/4 1041/3/4
f 1040/2/4 1030/2/4 1041/2/4
f 1030/3/4 1031/3/4 1041/3/4
f 1041/3/4 1032/3/4 1042/3/4
f 1032/2/4 1033/2/4 1043/2/4
f 1042/3/4 1032/3/4 1043/3/4
f 1038/3/4 1039/3/4 1044/3/4
f 1036/2/4 1037/2/4 1044/2/4
f 1034/2/4 1035/2/4 1044/2/4
f 1035/2/4 1036/2/4 1044/2/4
f 1037/3/4 1038/3/4 1044/3/4
f 1039/2/4 1040/2/4 1045/2/4
f 1044/3/4 1039/3/4 1045/3/4
f 1041/3/4 1042/3/4 1046/3/4
f 1045/2/4 1040/2/4 1046/2/4
f 1040/3/4 1041/3/4 1046/3/4
f 1046/3/4 1042/3/4 1047/3/4
f 1042/2/4 1043/2/4 1048/2/4
f 1047/3/4 1042/3/4 1048/3/4
f 1046/3/4 1047/3/4 1049/3/4
f 1045/3/4 1046/3/4 1049/3/4
f 1047/2/4 1048/2/4 1050/2/4
f 1049/3/4 1047/3/4 1050/3/4
f 1034/2/4 1044/2/4 1051/2/4
f 1044/2/4 1045/2/4 1051/2/4
f 1045/3/4 1049/3/4 1052/3/4
f 1051/2/4 1045/2/4 1052/2/4
f 1049/2/4 1050/2/4 1053/2/4
f 1052/3/4 1049/3/4 1053/3/4
f 1050/2/4 1048/2/4 1054/2/4
f 1053/2/4 1050/2/4 1054/2/4
f 1048/2/4 1043/2/4 1054/2/4
f 1034/2/4 1051/2/4 1055/2/4
f 1051/3/4 1052/3/4 1056/3/4
f 1055/2/4 1051/2/4 1056/2/4
f 1056/3/4 1052/3/4 1057/3/4
f 1052/2/4 1053/2/4 1058/2/4
f 1057/3/4 1052/3/4 1058/3/4
f 1053/3/4 1054/3/4 1059/3/4
f 1058/2/4 1053/2/4 1059/2/4
f 1059/3/4 1054/3/4 1060/3/4
f 1054/2/4 1043/2/4 1061/2/4
f 1060/3/4 1054/3/4 1061/3/4
f 1043/2/4 1033/2/4 1062/2/4
f 1061/2/4 1043/2/4 1062/2/4
f 1034/2/4 1055/2/4 1063/2/4
f 1056/3/4 1057/3/4 1064/3/4
f 1063/2/4 1055/2/4 1064/2/4
f 1055/3/4 1056/3/4 1064/3/4
f 1064/3/4 1057/3/4 1065/3/4
f 1059/2/4 1060/2/4 1066/2/4
f 1065/3/4 1057/3/4 1066/3/4
f 1057/2/4 1058/2/4 1066/2/4
f 1058/2/4 1059/2/4 1066/2/4
f 1060/3/4 1061/3/4 1067/3/4
f 1066/2/4 1060/2/4 1067/2/4
f 1061/3/4 1062/3/4 1067/3/4
f 1067/3/4 1062/3/4 1068/3/4
f 1062/2/4 1033/2/4 1069/2/4
f 1068/3/4 1062/3/4 1069/3/4
f 1033/2/4 1017/2/4 1070/2/4
f 1069/2/4 1033/2/4 1070/2/4
f 1034/2/4 1063/2/4 1071/2/4
f 1064/3/4 1065/3/4 1071/3/4
f 1063/3/4 1064/3/4 1071/3/4
f 1065/2/4 1066/2/4 1072/2/4
f 1071/3/4 1065/3/4 1072/3/4
f 1067/2/4 1068/2/4 1072/2/4
f 1066/2/4 1067/2/4 1072/2/4
f 1069/3/4 1070/3/4 1073/3/4
f 1072/2/4 1068/2/4 1073/2/4
f 1068/3/4 1069/3/4 1073/3/4
f 1070/2/4 1017/2/4 1074/2/4
f 1073/3/4 1070/3/4 1074/3/4
f 1072/2/4 1073/2/4 1075/2/4
f 1071/2/4 1072/2/4 1075/2/4
f 1073/2/4 1074/2/4 1075/2/4
f 1075/2/4 1074/2/4 1076/2/4
f 1071/2/4 1075/2/4 1077/2/4
f 1075/3/4 1076/3/4 1078/3/4
f 1077/2/4 1075/2/4 1078/2/4
f 1078/3/4 1076/3/4 1079/3/4
f 1079/3/4 1076/3/4 1080/3/4
f 1076/2/4 1074/2/4 1081/2/4
f 1080/3/4 1076/3/4 1081/3/4
f 1081/2/4 1074/2/4 1082/2/4
f 1077/3/4 1078/3/4 1083/3/4
f 1078/3/4 1079/3/4 1083/3/4
f 1079/2/4 1080/2/4 1084/2/4
f 1083/3/4 1079/3/4 1084/3/4
f 1081/3/4 1082/3/4 1085/3/4
f 1084/2/4 1080/2/4 1085/2/4
f 1080/3/4 1081/3/4 1085/3/4
f 1085/3/4 1082/3/4 1086/3/4
f 1082/2/4 1074/2/4 1087/2/4
f 1086/3/4 1082/3/4 1087/3/4
f 1074/2/4 1017/2/4 1088/2/4
f 1087/2/4 1074/2/4 1088/2/4
f 1034/2/4 1071/2/4 1089/2/4
f 1071/2/4 1077/2/4 1089/2/4
f 1077/3/4 1083/3/4 1090/3/4
f 1089/2/4 1077/2/4 1090/2/4
f 1086/3/4 1087/3/4 1091/3/4
f 1087/3/4 1088/3/4 1091/3/4
f 1085/2/4 1086/2/4 1091/2/4
f 1084/2/4 1085/2/4 1091/2/4
f 1083/2/4 1084/2/4 1091/2/4
f 1091/3/4 1088/3/4 1092/3/4
f 1090/3/4 1083/3/4 1093/3/4
f 1089/3/4 1090/3/4 1093/3/4
f 1091/2/4 1092/2/4 1094/2/4
f 1093/3/4 1083/3/4 1094/3/4
f 1083/2/4 1091/2/4 1094/2/4
f 1094/2/4 1092/2/4 1095/2/4
f 1092/3/4 1088/3/4 1096/3/4
f 1095/2/4 1092/2/4 1096/2/4
f 1094/2/4 1095/2/4 1097/2/4
f 1093/2/4 1094/2/4 1097/2/4
f 1095/3/4 1096/3/4 1098/3/4
f 1097/2/4 1095/2/4 1098/2/4
f 1096/3/4 1088/3/4 1099/3/4
f 1098/3/4 1096/3/4 1099/3/4
f 1088/2/4 1017/2/4 1100/2/4
f 1099/3/4 1088/3/4 1100/3/4
f 1089/3/4 1093/3/4 1101/3/4
f 1093/2/4 1097/2/4 1101/2/4
f 1101/2/4 1097/2/4 1102/2/4
f 1102/2/4 1097/2/4 1103/2/4
f 1097/3/4 1098/3/4 1104/3/4
f 1103/2/4 1097/2/4 1104/2/4
f 1098/3/4 1099/3/4 1104/3/4
f 1104/3/4 1099/3/4 1105/3/4
f 1099/2/4 1100/2/4 1106/2/4
f 1105/3/4 1099/3/4 1106/3/4
f 1101/3/4 1102/3/4 1107/3/4
f 1034/2/4 1089/2/4 1107/2/4
f 1089/3/4 1101/3/4 1107/3/4
f 1107/3/4 1102/3/4 1108/3/4
f 1102/2/4 1103/2/4 1109/2/4
f 1108/3/4 1102/3/4 1109/3/4
f 1104/3/4 1105/3/4 1110/3/4
f 1109/2/4 1103/2/4 1110/2/4
f 1103/3/4 1104/3/4 1110/3/4
f 1110/3/4 1105/3/4 1111/3/4
f 1105/2/4 1106/2/4 1112/2/4
f 1111/3/4 1105/3/4 1112/3/4
f 1107/2/4 1108/2/4 1113/2/4
f 1110/3/4 1111/3/4 1113/3/4
f 1108/3/4 1109/3/4 1113/3/4
f 1109/3/4 1110/3/4 1113/3/4
f 1111/2/4 1112/2/4 1114/2/4
f 1113/3/4 1111/3/4 1114/3/4
f 1113/2/4 1114/2/4 1115/2/4
f 1114/2/4 1112/2/4 1116/2/4
f 1115/2/4 1114/2/4 1116/2/4
f 1107/2/4 1113/2/4 1117/2/4
f 1034/2/4 1107/2/4 1117/2/4
f 1113/2/4 1115/2/4 1117/2/4
f 1115/3/4 1116/3/4 1118/3/4
f 1117/2/4 1115/2/4 1118/2/4
f 1118/3/4 1116/3/4 1119/3/4
f 1119/3/4 1116/3/4 1120/3/4
f 1116/2/4 1112/2/4 1121/2/4
f 1112/2/4 1106/2/4 1122/2/4
f 1121/2/4 1112/2/4 1122/2/4
f 1106/2/4 1100/2/4 1122/2/4
f 1100/2/4 1017/2/4 1122/2/4
f 1118/3/4 1119/3/4 1123/3/4
f 1117/3/4 1118/3/4 1123/3/4
f 1119/2/4 1120/2/4 1124/2/4
f 1123/3/4 1119/3/4 1124/3/4
f 1116/2/4 1121/2/4 1125/2/4
f 1120/3/4 1116/3/4 1125/3/4
f 1121/3/4 1122/3/4 1126/3/4
f 1125/2/4 1121/2/4 1126/2/4
f 1126/3/4 1122/3/4 1127/3/4
f 1127/3/4 1122/3/4 1128/3/4
f 1124/2/4 1120/2/4 1129/2/4
f 1123/2/4 1124/2/4 1129/2/4
f 1120/3/4 1125/3/4 1129/3/4
f 1126/3/4 1127/3/4 1129/3/4
f 1125/3/4 1126/3/4 1129/3/4
f 1129/3/4 1127/3/4 1130/3/4
f 1130/3/4 1127/3/4 1131/3/4
f 1127/2/4 1128/2/4 1132/2/4
f 1131/3/4 1127/3/4 1132/3/4
f 1034/2/4 1117/2/4 1133/2/4
f 1133/2/4 1117/2/4 1134/2/4
f 1134/2/4 1117/2/4 1135/2/4
f 1117/3/4 1123/3/4 1136/3/4
f 1135/2/4 1117/2/4 1136/2/4
f 1123/2/4 1129/2/4 1137/2/4
f 1136/3/4 1123/3/4 1137/3/4
f 1129/2/4 1130/2/4 1137/2/4
f 1134/2/4 1135/2/4 1138/2/4
f 1138/2/4 1135/2/4 1139/2/4
f 1137/2/4 1130/2/4 1140/2/4
f 1130/3/4 1131/3/4 1140/3/4
f 1136/2/4 1137/2/4 1140/2/4
f 1131/2/4 1132/2/4 1141/2/4
f 1140/3/4 1131/3/4 1141/3/4
f 1141/2/4 1132/2/4 1142/2/4
f 1140/2/4 1141/2/4 1142/2/4
f 1128/3/4 1122/3/4 1143/3/4
f 1142/2/4 1132/2/4 1143/2/4
f 1132/2/4 1128/2/4 1143/2/4
f 1139/2/4 1135/2/4 1144/2/4
f 1135/3/4 1136/3/4 1145/3/4
f 1144/2/4 1135/2/4 1145/2/4
f 1140/2/4 1142/2/4 1146/2/4
f 1145/3/4 1136/3/4 1146/3/4
f 1136/2/4 1140/2/4 1146/2/4
f 1142/3/4 1143/3/4 1147/3/4
f 1146/2/4 1142/2/4 1147/2/4
f 1147/3/4 1143/3/4 1148/3/4
f 1143/3/4 1122/3/4 1149/3/4
f 1148/3/4 1143/3/4 1149/3/4
f 1122/2/4 1017/2/4 1149/2/4
f 1139/2/4 1144/2/4 1151/2/4
f 1144/3/4 1145/3/4 1152/3/4
f 1147/3/4 1148/3/4 1152/3/4
f 1151/2/4 1144/2/4 1152/2/4
f 1146/3/4 1147/3/4 1152/3/4
f 1145/3/4 1146/3/4 1152/3/4
f 1148/2/4 1149/2/4 1153/2/4
f 1152/3/4 1148/3/4 1153/3/4
f 1150/2/4 1151/2/4 1155/2/4
f 1151/2/4 1152/2/4 1155/2/4
f 1152/2/4 1153/2/4 1155/2/4
f 1154/2/4 1155/2/4 1156/2/4
f 1153/2/4 1149/2/4 1157/2/4
f 1156/2/4 1155/2/4 1157/2/4
f 1149/2/4 1017/2/4 1157/2/4
f 1155/2/4 1153/2/4 1157/2/4
f 1158/6/4 1159/6/4 1161/6/4
f 1161/6/4 1159/6/4 1162/6/4
f 1160/6/4 1161/6/4 1164/6/4
f 1162/6/4 1163/6/4 1164/6/4
f 1161/6/4 1162/6/4 1164/6/4
f 1164/6/4 1163/6/4 1165/6/4
f 1165/6/4 1163/6/4 1166/6/4
f 1166/6/4 1163/6/4 1167/6/4
f 1165/6/4 1166/6/4 1168/6/4
f 1168/6/4 1166/6/4 1169/6/4
f 1170/6/4 1171/6/4 1173/6/4
f 1173/6/4 1171/6/4 1174/6/4
f 1173/6/4 1174/6/4 1176/6/4
f 1174/6/4 1175/6/4 1176/6/4
f 1172/6/4 1173/6/4 1176/6/4
f 1176/6/4 1175/6/4 1177/6/4
f 1177/6/4 1175/6/4 1178/6/4
f 1178/6/4 1175/6/4 1179/6/4
f 1177/6/4 1178/6/4 1180/6/4
f 1180/6/4 1178/6/4 1181/6/4
f 1182/4/4 1183/4/4 1185/4/4
f 1185/4/4 1183/4/4 1186/4/4
f 1186/4/4 1183/4/4 1187/4/4
f 1187/4/4 1183/4/4 1188/4/4
f 1184/4/4 1185/4/4 1190/4/4
f 1185/4/4 1186/4/4 1190/4/4
f 1190/4/4 1186/4/4 1191/4/4
f 1188/4/4 1189/4/4 1192/4/4
f 1187/4/4 1188/4/4 1192/4/4
f 1192/4/4 1189/4/4 1193/4/4
f 1184/4/4 1190/4/4 1194/4/4
f 1193/4/4 1189/4/4 1197/4/4
f 1194/4/4 1195/4/4 1198/4/4
f 1184/4/4 1194/4/4 1198/4/4
f 1198/4/4 1195/4/4 1199/4/4
f 1199/4/4 1195/4/4 1200/4/4
f 1196/4/4 1197/4/4 1201/4/4
f 1197/4/4 1189/4/4 1202/4/4
f 1201/4/4 1197/4/4 1202/4/4
f 1202/4/4 1189/4/4 1203/4/4
f 1199/4/4 1200/4/4 1204/4/4
f 1200/4/4 1201/4/4 1204/4/4
f 1201/4/4 1202/4/4 1204/4/4
f 1204/4/4 1202/4/4 1205/4/4
f 1206/4/4 1207/4/4 1209/4/4
f 1209/4/4 1207/4/4 1210/4/4
f 1210/4/4 1207/4/4 1211/4/4
f 1211/4/4 1207/4/4 1212/4/4
f 1208/4/4 1209/4/4 1214/4/4
f 1209/4/4 1210/4/4 1214/4/4
f 1214/4/4 1210/4/4 1215/4/4
f 1211/4/4 1212/4/4 1216/4/4
f 1212/4/4 1213/4/4 1216/4/4
f 1216/4/4 1213/4/4 1217/4/4
f 1208/4/4 1214/4/4 1218/4/4
f 1217/4/4 1213/4/4 1221/4/4
f 1218/4/4 1219/4/4 1222/4/4
f 1208/4/4 1218/4/4 1222/4/4
f 1222/4/4 1219/4/4 1223/4/4
f 1223/4/4 1219/4/4 1224/4/4
f 1220/4/4 1221/4/4 1225/4/4
f 1221/4/4 1213/4/4 1226/4/4
f 1225/4/4 1221/4/4 1226/4/4
f 1226/4/4 1213/4/4 1227/4/4
f 1223/4/4 1224/4/4 1228/4/4
f 1224/4/4 1225/4/4 1228/4/4
f 1225/4/4 1226/4/4 1228/4/4
f 1228/4/4 1226/4/4 1229/4/4
f 1234/4/5 1231/4/5 1230/4/5
f 1235/4/5 1231/4/5 1234/4/5
f 1236/4/5 1233/4/5 1232/4/5
f 1237/4/5 1233/4/5 1236/4/5
f 1242/4/5 1239/4/5 1238/4/5
f 1243/4/5 1239/4/5 1242/4/5
f 1244/4/5 1241/4/5 1240/4/5
f 1245/4/5 1241/4/5 1244/4/5
f 1255/4/5 1247/4/5 1246/4/5
f 1256/4/5 1247/4/5 1255/4/5
f 1257/4/5 1249/4/5 1248/4/5
f 1258/4/5 1249/4/5 1257/4/5
f 1259/4/5 1251/4/5 1250/4/5
f 1260/4/5 1251/4/5 1259/4/5
f 1261/4/5 1253/4/5 1252/4/5
f 1262/4/5 1253/4/5 1261/4/5
f 1264/2/5 1260/2/5 1259/2/5
f 1264/2/5 1263/2/5 1262/2/5
f 1264/2/5 1262/2/5 1261/2/5
f 1264/2/5 1261/2/5 1260/2/5
f 1264/2/5 1256/2/5 1255/2/5
f 1264/2/5 1259/2/5 1258/2/5
f 1264/2/5 1258/2/5 1257/2/5
f 1264/2/5 1257/2/5 1256/2/5
f 1264/2/5 1255/2/5 1254/2/5
f 1265/2/5 1263/2/5 1264/2/5
f 1266/2/5 1263/2/5 1265/2/5
f 1267/2/5 1263/2/5 1266/2/5
f 1268/2/5 1263/2/5 1267/2/5
f 1269/2/5 1263/2/5 1268/2/5
f 1270/2/5 1263/2/5 1269/2/5
f 1271/2/5 1263/2/5 1270/2/5
f 1272/2/5 1263/2/5 1271/2/5
f 1273/2/5 1263/2/5 1272/2/5
f 1274/4/5 1266/4/5 1265/4/5
f 1275/4/5 1266/4/5 1274/4/5
f 1276/4/5 1268/4/5 1267/4/5
f 1277/4/5 1268/4/5 1276/4/5
f 1278/4/5 1270/4/5 1269/4/5
f 1279/4/5 1270/4/5 1278/4/5
f 1280/4/5 1272/4/5 1271/4/5
f 1281/4/5 1272/4/5 1280/4/5
f 1290/4/5 1283/4/5 1282/4/5
f 1291/4/5 1283/4/5 1290/4/5
f 1292/4/5 1285/4/5 1284/4/5
f 1293/4/5 1285/4/5 1292/4/5
f 1294/4/5 1287/4/5 1286/4/5
f 1295/4/5 1287/4/5 1294/4/5
f 1296/4/5 1289/4/5 1288/4/5
f 1297/4/5 1289/4/5 1296/4/5
f 1306/4/5 1299/4/5 1298/4/5
f 1307/4/5 1299/4/5 1306/4/5
f 1308/4/5 1301/4/5 1300/4/5
f 1309/4/5 1301/4/5 1308/4/5
f 1310/4/5 1303/4/5 1302/4/5
f 1311/4/5 1303/4/5 1310/4/5
f 1312/4/5 1305/4/5 1304/4/5
f 1313/4/5 1305/4/5 1312/4/5
f 1318/4/5 1315/4/5 1314/4/5
f 1319/4/5 1315/4/5 1318/4/5
f 1320/4/5 1317/4/5 1316/4/5
f 1321/4/5 1317/4/5 1320/4/5
f 1326/4/5 1323/4/5 1322/4/5
f 1327/4/5 1323/4/5 1326/4/5
f 1328/4/5 1325/4/5 1324/4/5
f 1329/4/5 1325/4/5 1328/4/5
f 1332/2/5 1331/2/5 1330/2/5
f 1333/2/5 1331/2/5 1332/2/5
f 1339/4/5 1335/4/5 1334/4/5
f 1340/4/5 1335/4/5 1339/4/5
f 1341/4/5 1335/4/5 1340/4/5
f 1342/4/5 1335/4/5 1341/4/5
f 1343/4/5 1335/4/5 1342/4/5
f 1344/4/5 1335/4/5 1343/4/5
f 1346/4/5 1339/4/5 1338/4/5
f 1346/4/5 1340/4/5 1339/4/5
f 1347/4/5 1340/4/5 1346/4/5
f 1348/5/5 1342/5/5 1341/5/5
f 1349/5/5 1342/5/5 1348/5/5
f 1350/4/5 1345/4/5 1344/4/5
f 1350/4/5 1344/4/5 1343/4/5
f 1351/4/5 1345/4/5 1350/4/5
f 1353/4/5 1345/4/5 1351/4/5
f 1354/5/5 1353/5/5 1352/5/5
f 1355/4/5 1345/4/5 1353/4/5
f 1355/5/5 1353/5/5 1354/5/5
f 1356/4/5 1346/4/5 1338/4/5
f 1361/4/5 1345/4/5 1355/4/5
f 1362/4/5 1356/4/5 1338/4/5
f 1362/4/5 1357/4/5 1356/4/5
f 1363/4/5 1357/4/5 1362/4/5
f 1364/4/5 1357/4/5 1363/4/5
f 1365/5/5 1359/5/5 1358/5/5
f 1366/5/5 1359/5/5 1365/5/5
f 1367/4/5 1361/4/5 1360/4/5
f 1368/4/5 1345/4/5 1361/4/5
f 1368/4/5 1361/4/5 1367/4/5
f 1369/4/5 1345/4/5 1368/4/5
f 1370/4/5 1364/4/5 1363/4/5
f 1370/4/5 1366/4/5 1365/4/5
f 1370/4/5 1368/4/5 1367/4/5
f 1370/4/5 1367/4/5 1366/4/5
f 1370/4/5 1365/4/5 1364/4/5
f 1371/4/5 1368/4/5 1370/4/5
f 1372/2/5 1337/2/5 1336/2/5
f 1373/2/5 1337/2/5 1372/2/5
f 1376/2/5 1375/2/5 1374/2/5
f 1377/2/5 1375/2/5 1376/2/5
f 1380/2/5 1379/2/5 1378/2/5
f 1381/2/5 1379/2/5 1380/2/5
f 1384/2/5 1383/2/5 1382/2/5
f 1385/2/5 1383/2/5 1384/2/5
f 1388/2/5 1387/2/5 1386/2/5
f 1389/2/5 1387/2/5 1388/2/5
f 1392/2/5 1391/2/5 1390/2/5
f 1393/2/5 1391/2/5 1392/2/5
f 1394/2/5 1391/2/5 1393/2/5
f 1395/2/5 1391/2/5 1394/2/5
f 1396/2/5 1391/2/5 1395/2/5
f 1397/2/5 1391/2/5 1396/2/5
f 1398/2/5 1392/2/5 1390/2/5
f 1399/2/5 1391/2/5 1397/2/5
f 1400/2/5 1398/2/5 1390/2/5
f 1400/2/5 1399/2/5 1398/2/5
f 1401/2/5 1391/2/5 1399/2/5
f 1401/2/5 1399/2/5 1400/2/5
f 1402/4/6 1403/4/6 1406/4/6
f 1406/4/6 1403/4/6 1407/4/6
f 1404/4/6 1405/4/6 1408/4/6
f 1408/4/6 1405/4/6 1409/4/6
f 1410/4/6 1411/4/6 1414/4/6
f 1414/4/6 1411/4/6 1415/4/6
f 1412/4/6 1413/4/6 1416/4/6
f 1416/4/6 1413/4/6 1417/4/6
f 1418/4/6 1419/4/6 1426/4/6
f 1426/4/6 1419/4/6 1427/4/6
f 1420/4/6 1421/4/6 1428/4/6
f 1428/4/6 1421/4/6 1429/4/6
f 1422/4/6 1423/4/6 1430/4/6
f 1430/4/6 1423/4/6 1431/4/6
f 1424/4/6 1425/4/6 1432/4/6
f 1432/4/6 1425/4/6 1433/4/6
f 1434/2/6 1435/2/6 1436/2/6
f 1436/2/6 1435/2/6 1437/2/6
f 1434/2/6 1436/2/6 1438/2/6
f 1437/2/6 1435/2/6 1439/2/6
f 1434/2/6 1438/2/6 1440/2/6
f 1438/2/6 1439/2/6 1440/2/6
f 1440/2/6 1439/2/6 1441/2/6
f 1434/2/6 1440/2/6 1442/2/6
f 1441/2/6 1439/2/6 1443/2/6
f 1443/2/6 1439/2/6 1444/2/6
f 1442/2/6 1443/2/6 1444/2/6
f 1439/2/6 1435/2/6 1445/2/6
f 1444/2/6 1439/2/6 1445/2/6
f 1442/2/6 1444/2/6 1446/2/6
f 1445/2/6 1435/2/6 1447/2/6
f 1442/2/6 1446/2/6 1448/2/6
f 1446/2/6 1447/2/6 1448/2/6
f 1434/2/6 1442/2/6 1448/2/6
f 1447/2/6 1435/2/6 1449/2/6
f 1448/2/6 1447/2/6 1449/2/6
f 1450/4/6 1451/4/6 1458/4/6
f 1458/4/6 1451/4/6 1459/4/6
f 1452/4/6 1453/4/6 1460/4/6
f 1460/4/6 1453/4/6 1461/4/6
f 1454/4/6 1455/4/6 1462/4/6
f 1462/4/6 1455/4/6 1463/4/6
f 1456/4/6 1457/4/6 1464/4/6
f 1464/4/6 1457/4/6 1465/4/6
f 1466/4/6 1467/4/6 1474/4/6
f 1474/4/6 1467/4/6 1475/4/6
f 1468/4/6 1469/4/6 1476/4/6
f 1476/4/6 1469/4/6 1477/4/6
f 1470/4/6 1471/4/6 1478/4/6
f 1478/4/6 1471/4/6 1479/4/6
f 1472/4/6 1473/4/6 1480/4/6
f 1480/4/6 1473/4/6 1481/4/6
f 1482/4/6 1483/4/6 1490/4/6
f 1490/4/6 1483/4/6 1491/4/6
f 1484/4/6 1485/4/6 1492/4/6
f 1492/4/6 1485/4/6 1493/4/6
f 1486/4/6 1487/4/6 1494/4/6
f 1494/4/6 1487/4/6 1495/4/6
f 1488/4/6 1489/4/6 1496/4/6
f 1496/4/6 1489/4/6 1497/4/6
f 1498/4/6 1499/4/6 1502/4/6
f 1502/4/6 1499/4/6 1503/4/6
f 1500/4/6 1501/4/6 1504/4/6
f 1504/4/6 1501/4/6 1505/4/6
f 1506/2/6 1507/2/6 1508/2/6
f 1508/2/6 1507/2/6 1509/2/6
f 1510/4/6 1511/4/6 1514/4/6
f 1514/4/6 1511/4/6 1515/4/6
f 1512/4/6 1513/4/6 1516/4/6
f 1516/4/6 1513/4/6 1517/4/6
f 1518/2/6 1519/2/6 1520/2/6
f 1520/2/6 1519/2/6 1521/2/6
f 1522/4/6 1523/4/6 1524/4/6
f 1524/4/6 1523/4/6 1525/4/6
f 1526/4/6 1527/4/6 1528/4/6
f 1528/4/6 1527/4/6 1529/4/6
f 1530/4/6 1531/4/6 1535/4/6
f 1535/4/6 1531/4/6 1536/4/6
f 1536/4/6 1531/4/6 1537/4/6
f 1537/4/6 1531/4/6 1538/4/6
f 1538/4/6 1531/4/6 1539/4/6
f 1539/4/6 1531/4/6 1540/4/6
f 1534/4/6 1535/4/6 1542/4/6
f 1535/4/6 1536/4/6 1542/4/6
f 1542/4/6 1536/4/6 1543/4/6
f 1540/4/6 1541/4/6 1544/4/6
f 1539/4/6 1540/4/6 1544/4/6
f 1544/4/6 1541/4/6 1545/4/6
f 1537/5/6 1538/5/6 1546/5/6
f 1545/4/6 1541/4/6 1547/4/6
f 1537/5/6 1546/5/6 1548/5/6
f 1546/5/6 1547/5/6 1548/5/6
f 1547/4/6 1541/4/6 1549/4/6
f 1548/5/6 1547/5/6 1549/5/6
f 1534/4/6 1542/4/6 1550/4/6
f 1549/4/6 1541/4/6 1553/4/6
f 1550/4/6 1551/4/6 1554/4/6
f 1534/4/6 1550/4/6 1554/4/6
f 1554/4/6 1551/4/6 1555/4/6
f 1555/4/6 1551/4/6 1556/4/6
f 1537/5/6 1548/5/6 1557/5/6
f 1557/5/6 1548/5/6 1558/5/6
f 1552/4/6 1553/4/6 1559/4/6
f 1553/4/6 1541/4/6 1560/4/6
f 1559/4/6 1553/4/6 1560/4/6
f 1560/4/6 1541/4/6 1561/4/6
f 1555/4/6 1556/4/6 1562/4/6
f 1557/4/6 1558/4/6 1562/4/6
f 1559/4/6 1560/4/6 1562/4/6
f 1558/4/6 1559/4/6 1562/4/6
f 1556/4/6 1557/4/6 1562/4/6
f 1562/4/6 1560/4/6 1563/4/6
f 1532/2/6 1533/2/6 1564/2/6
f 1564/2/6 1533/2/6 1565/2/6
f 1566/2/6 1567/2/6 1568/2/6
f 1568/2/6 1567/2/6 1569/2/6
f 1570/2/6 1571/2/6 1572/2/6
f 1572/2/6 1571/2/6 1573/2/6
f 1574/2/6 1575/2/6 1576/2/6
f 1576/2/6 1575/2/6 1577/2/6
f 1578/2/6 1579/2/6 1580/2/6
f 1580/2/6 1579/2/6 1581/2/6
f 1581/2/6 1579/2/6 1583/2/6
f 1582/2/6 1583/2/6 1584/2/6
f 1583/2/6 1579/2/6 1585/2/6
f 1584/2/6 1583/2/6 1585/2/6
f 1585/2/6 1579/2/6 1587/2/6
f 1586/2/6 1587/2/6 1588/2/6
f 1587/2/6 1579/2/6 1589/2/6
f 1588/2/6 1587/2/6 1589/2/6
f 1578/2/6 1580/2/6 1590/2/6
f 1589/2/6 1579/2/6 1591/2/6
f 1578/2/6 1590/2/6 1592/2/6
f 1590/2/6 1591/2/6 1592/2/6
f 1591/2/6 1579/2/6 1593/2/6
f 1592/2/6 1591/2/6 1593/2/6
